<svg width="180" height="180" viewBox="0 0 180 180" fill="none" xmlns="http://www.w3.org/2000/svg">
<circle cx="90" cy="90" r="90" fill="black"/>
<mask id="path-2-outside-1_249_36" maskUnits="userSpaceOnUse" x="35" y="45" width="111" height="79" fill="black">
<rect fill="white" x="35" y="45" width="111" height="79"/>
<path d="M50.625 66.25C50.625 66.4167 50.6667 66.5417 50.75 66.625C50.8333 66.625 51 66.625 51.25 66.625C51.5833 66.5417 51.9583 66.4167 52.375 66.25C52.875 66.0833 53.5417 65.875 54.375 65.625C56.7083 64.7917 58.25 64.5833 59 65C59.8333 65.4167 60 66.5 59.5 68.25C57.5833 73.3333 56.125 76.5417 55.125 77.875C54.7917 78.2083 54.5 78.6667 54.25 79.25C54.0833 79.75 53.9583 80.2083 53.875 80.625C53.875 80.9583 53.9583 81.1667 54.125 81.25C54.2917 81.25 55.7083 81.4167 58.375 81.75C61.4583 82.1667 63.5 82.7083 64.5 83.375C65.5833 84.0417 66 85.0417 65.75 86.375C65.5833 87.2917 65.125 88 64.375 88.5C63.7083 89 62.9167 89.2083 62 89.125C61.25 89.125 60.7917 89.0833 60.625 89C60.4583 88.8333 60.3333 88.4167 60.25 87.75C60.1667 87.0833 60.0417 86.7083 59.875 86.625C59.7083 86.4583 59.2083 86.3333 58.375 86.25C57.625 86.0833 56.2083 86.0417 54.125 86.125C52.125 86.125 50.9167 86.25 50.5 86.5C49.5 86.25 48.8333 85.6667 48.5 84.75C48.1667 83.75 48.375 82.5417 49.125 81.125C49.125 81.0417 49.5833 80.0833 50.5 78.25C51.5 76.4167 52.3333 74.7083 53 73.125C53.6667 71.4583 53.75 70.625 53.25 70.625C52.9167 70.625 51.9167 70.8333 50.25 71.25C48.1667 71.8333 46.625 72.0417 45.625 71.875C44.625 71.7083 43.9583 71.1667 43.625 70.25C43.2917 69.75 43.4583 68.9583 44.125 67.875C44.7917 66.7917 45.625 65.625 46.625 64.375C47.625 63.0417 48.2083 62.2083 48.375 61.875C49.0417 60.7917 49.4583 60.25 49.625 60.25C52.625 56 53.5833 53 52.5 51.25C51.5833 49.6667 51.6667 48.2917 52.75 47.125C53.9167 45.875 55.0833 46 56.25 47.5C58.3333 50.0833 57.9583 53.9583 55.125 59.125C54.625 60.2083 53.875 61.4167 52.875 62.75C51.875 64.0833 51.125 65.25 50.625 66.25ZM105.5 60.125C104.917 60.0417 103.625 59.7917 101.625 59.375C99.7083 58.875 98.2917 58.5 97.375 58.25C96.375 58.3333 95.75 58.0417 95.5 57.375C95.25 56.7083 95.25 56 95.5 55.25C95.8333 54.5 96.2083 53.9167 96.625 53.5C97.2917 52.9167 98.8333 53.125 101.25 54.125C103.667 55.0417 105.125 55.5 105.625 55.5C107.792 56.0833 109.292 56.6667 110.125 57.25C111.042 57.8333 111.5 58.8333 111.5 60.25C111.5 61.5833 110.833 63.4167 109.5 65.75C107.833 69 105.958 72 103.875 74.75C102.792 76.25 102.417 76.9583 102.75 76.875C103.167 76.7917 104.333 75.9583 106.25 74.375C107.333 73.375 108.375 72.875 109.375 72.875C110.375 72.7917 111.083 73.2917 111.5 74.375C111.25 75.0417 110.833 75.75 110.25 76.5C109.667 77.1667 108.917 77.875 108 78.625C107.083 79.2917 106.292 79.875 105.625 80.375C104.958 80.7917 104.042 81.375 102.875 82.125C101.708 82.875 100.958 83.375 100.625 83.625C99.625 84.125 98.9583 84.5417 98.625 84.875C98.375 85.2083 98 85.9167 97.5 87C96.9167 88 96.5417 89.2083 96.375 90.625C96.2917 92.0417 96.2917 93.3333 96.375 94.5C96.4583 95.6667 96.5833 97.2083 96.75 99.125C97 101.042 97.1667 102.375 97.25 103.125C97.3333 105.875 97.8333 107.667 98.75 108.5C99.6667 109.25 101.667 109.875 104.75 110.375C108.583 110.625 114.875 110.708 123.625 110.625C132.375 110.458 137.333 110.208 138.5 109.875C139.333 109.625 139.875 109.292 140.125 108.875C140.542 108.208 140 104.417 138.5 97.5C137.5 93 136.958 90.4167 136.875 89.75C136.792 89.0833 136.917 88.625 137.25 88.375C137.917 87.875 138.625 88.0833 139.375 89C140.208 89.9167 140.667 90.6667 140.75 91.25C141.667 93.75 143.042 98.875 144.875 106.625C145.042 108.125 144.833 109.708 144.25 111.375C143.75 113.042 142.875 114.042 141.625 114.375C140.792 114.792 139.625 115.042 138.125 115.125C136.625 115.208 131.875 115.25 123.875 115.25C113.458 115.417 106.542 115.375 103.125 115.125C99.7917 114.875 97.0417 114.25 94.875 113.25C93.9583 112.833 93.2083 110.125 92.625 105.125C92.0417 100.125 91.6667 97.5 91.5 97.25C91 96.1667 91.0833 93.7917 91.75 90.125C92.4167 86.4583 92.75 84.3333 92.75 83.75C92.5833 83 92.5833 82.4583 92.75 82.125C93 81.7917 93.7083 81 94.875 79.75C99.625 74.4167 103.25 69.375 105.75 64.625C106.5 63.2083 106.833 62.2083 106.75 61.625C106.75 61.0417 106.333 60.5417 105.5 60.125ZM60.75 100.125C61.25 99.5417 61.7917 99.25 62.375 99.25C62.9583 99.25 63.4167 99.5 63.75 100C63.8333 100.167 64 100.625 64.25 101.375C64.5833 102.125 64.875 102.833 65.125 103.5C65.375 104.167 65.6667 105.083 66 106.25C66.3333 107.333 66.5833 108.25 66.75 109C66.9167 109.75 67.0833 110.667 67.25 111.75C67.4167 112.833 67.4167 113.667 67.25 114.25C67 115.25 66.625 116 66.125 116.5C65.625 117 65.0833 117.208 64.5 117.125C63.4167 116.792 62.75 115.333 62.5 112.75C62.1667 109 61.625 106.458 60.875 105.125C59.625 102.875 59.5833 101.208 60.75 100.125ZM52.5 101.375C53.1667 101.792 53.5 103.958 53.5 107.875C53.5833 111.792 53.75 114 54 114.5C54.5 116.167 54.0833 117.708 52.75 119.125C51.75 120.125 50.9167 120.167 50.25 119.25C49.8333 118.75 49.5833 117.333 49.5 115C49.4167 112.583 49.25 111.042 49 110.375C48.5 108.792 48.3333 107.125 48.5 105.375C48.75 103.542 49.2083 102.208 49.875 101.375C50.7083 100.542 51.5833 100.542 52.5 101.375ZM40 122.25C39.25 122.5 38.6667 121.875 38.25 120.375C37.9167 118.792 37.625 116.958 37.375 114.875C37.125 112.792 36.875 111.5 36.625 111C36.2083 109.417 36 108.375 36 107.875C36.25 106.542 36.875 105.292 37.875 104.125C38.9583 102.958 40.0833 102.917 41.25 104C41.75 104.583 41.9167 105.125 41.75 105.625C41.5 106.042 41.4167 107 41.5 108.5C41.5833 110 41.625 111.083 41.625 111.75C41.7083 112.417 41.8333 113.5 42 115C42.25 116.5 42.4167 117.458 42.5 117.875C42.8333 118.958 42.8333 119.792 42.5 120.375C42.25 120.958 41.9583 121.375 41.625 121.625C41.2917 121.792 40.75 122 40 122.25Z"/>
</mask>
<path d="M50.625 66.25C50.625 66.4167 50.6667 66.5417 50.75 66.625C50.8333 66.625 51 66.625 51.25 66.625C51.5833 66.5417 51.9583 66.4167 52.375 66.25C52.875 66.0833 53.5417 65.875 54.375 65.625C56.7083 64.7917 58.25 64.5833 59 65C59.8333 65.4167 60 66.5 59.5 68.25C57.5833 73.3333 56.125 76.5417 55.125 77.875C54.7917 78.2083 54.5 78.6667 54.25 79.25C54.0833 79.75 53.9583 80.2083 53.875 80.625C53.875 80.9583 53.9583 81.1667 54.125 81.25C54.2917 81.25 55.7083 81.4167 58.375 81.75C61.4583 82.1667 63.5 82.7083 64.5 83.375C65.5833 84.0417 66 85.0417 65.75 86.375C65.5833 87.2917 65.125 88 64.375 88.5C63.7083 89 62.9167 89.2083 62 89.125C61.25 89.125 60.7917 89.0833 60.625 89C60.4583 88.8333 60.3333 88.4167 60.25 87.75C60.1667 87.0833 60.0417 86.7083 59.875 86.625C59.7083 86.4583 59.2083 86.3333 58.375 86.25C57.625 86.0833 56.2083 86.0417 54.125 86.125C52.125 86.125 50.9167 86.25 50.5 86.5C49.5 86.25 48.8333 85.6667 48.5 84.75C48.1667 83.75 48.375 82.5417 49.125 81.125C49.125 81.0417 49.5833 80.0833 50.5 78.25C51.5 76.4167 52.3333 74.7083 53 73.125C53.6667 71.4583 53.75 70.625 53.25 70.625C52.9167 70.625 51.9167 70.8333 50.25 71.25C48.1667 71.8333 46.625 72.0417 45.625 71.875C44.625 71.7083 43.9583 71.1667 43.625 70.25C43.2917 69.75 43.4583 68.9583 44.125 67.875C44.7917 66.7917 45.625 65.625 46.625 64.375C47.625 63.0417 48.2083 62.2083 48.375 61.875C49.0417 60.7917 49.4583 60.25 49.625 60.25C52.625 56 53.5833 53 52.5 51.25C51.5833 49.6667 51.6667 48.2917 52.75 47.125C53.9167 45.875 55.0833 46 56.25 47.5C58.3333 50.0833 57.9583 53.9583 55.125 59.125C54.625 60.2083 53.875 61.4167 52.875 62.75C51.875 64.0833 51.125 65.25 50.625 66.25ZM105.5 60.125C104.917 60.0417 103.625 59.7917 101.625 59.375C99.7083 58.875 98.2917 58.5 97.375 58.25C96.375 58.3333 95.75 58.0417 95.5 57.375C95.25 56.7083 95.25 56 95.5 55.25C95.8333 54.5 96.2083 53.9167 96.625 53.5C97.2917 52.9167 98.8333 53.125 101.25 54.125C103.667 55.0417 105.125 55.5 105.625 55.5C107.792 56.0833 109.292 56.6667 110.125 57.25C111.042 57.8333 111.5 58.8333 111.5 60.25C111.5 61.5833 110.833 63.4167 109.5 65.75C107.833 69 105.958 72 103.875 74.75C102.792 76.25 102.417 76.9583 102.75 76.875C103.167 76.7917 104.333 75.9583 106.25 74.375C107.333 73.375 108.375 72.875 109.375 72.875C110.375 72.7917 111.083 73.2917 111.5 74.375C111.25 75.0417 110.833 75.75 110.25 76.5C109.667 77.1667 108.917 77.875 108 78.625C107.083 79.2917 106.292 79.875 105.625 80.375C104.958 80.7917 104.042 81.375 102.875 82.125C101.708 82.875 100.958 83.375 100.625 83.625C99.625 84.125 98.9583 84.5417 98.625 84.875C98.375 85.2083 98 85.9167 97.5 87C96.9167 88 96.5417 89.2083 96.375 90.625C96.2917 92.0417 96.2917 93.3333 96.375 94.5C96.4583 95.6667 96.5833 97.2083 96.75 99.125C97 101.042 97.1667 102.375 97.25 103.125C97.3333 105.875 97.8333 107.667 98.75 108.5C99.6667 109.25 101.667 109.875 104.75 110.375C108.583 110.625 114.875 110.708 123.625 110.625C132.375 110.458 137.333 110.208 138.5 109.875C139.333 109.625 139.875 109.292 140.125 108.875C140.542 108.208 140 104.417 138.5 97.5C137.5 93 136.958 90.4167 136.875 89.75C136.792 89.0833 136.917 88.625 137.25 88.375C137.917 87.875 138.625 88.0833 139.375 89C140.208 89.9167 140.667 90.6667 140.75 91.25C141.667 93.75 143.042 98.875 144.875 106.625C145.042 108.125 144.833 109.708 144.25 111.375C143.75 113.042 142.875 114.042 141.625 114.375C140.792 114.792 139.625 115.042 138.125 115.125C136.625 115.208 131.875 115.25 123.875 115.25C113.458 115.417 106.542 115.375 103.125 115.125C99.7917 114.875 97.0417 114.25 94.875 113.25C93.9583 112.833 93.2083 110.125 92.625 105.125C92.0417 100.125 91.6667 97.5 91.5 97.25C91 96.1667 91.0833 93.7917 91.75 90.125C92.4167 86.4583 92.75 84.3333 92.75 83.75C92.5833 83 92.5833 82.4583 92.75 82.125C93 81.7917 93.7083 81 94.875 79.75C99.625 74.4167 103.25 69.375 105.75 64.625C106.5 63.2083 106.833 62.2083 106.75 61.625C106.75 61.0417 106.333 60.5417 105.5 60.125ZM60.75 100.125C61.25 99.5417 61.7917 99.25 62.375 99.25C62.9583 99.25 63.4167 99.5 63.75 100C63.8333 100.167 64 100.625 64.25 101.375C64.5833 102.125 64.875 102.833 65.125 103.5C65.375 104.167 65.6667 105.083 66 106.25C66.3333 107.333 66.5833 108.25 66.75 109C66.9167 109.75 67.0833 110.667 67.25 111.75C67.4167 112.833 67.4167 113.667 67.25 114.25C67 115.25 66.625 116 66.125 116.5C65.625 117 65.0833 117.208 64.5 117.125C63.4167 116.792 62.75 115.333 62.5 112.75C62.1667 109 61.625 106.458 60.875 105.125C59.625 102.875 59.5833 101.208 60.75 100.125ZM52.5 101.375C53.1667 101.792 53.5 103.958 53.5 107.875C53.5833 111.792 53.75 114 54 114.5C54.5 116.167 54.0833 117.708 52.75 119.125C51.75 120.125 50.9167 120.167 50.25 119.25C49.8333 118.75 49.5833 117.333 49.5 115C49.4167 112.583 49.25 111.042 49 110.375C48.5 108.792 48.3333 107.125 48.5 105.375C48.75 103.542 49.2083 102.208 49.875 101.375C50.7083 100.542 51.5833 100.542 52.5 101.375ZM40 122.25C39.25 122.5 38.6667 121.875 38.25 120.375C37.9167 118.792 37.625 116.958 37.375 114.875C37.125 112.792 36.875 111.5 36.625 111C36.2083 109.417 36 108.375 36 107.875C36.25 106.542 36.875 105.292 37.875 104.125C38.9583 102.958 40.0833 102.917 41.25 104C41.75 104.583 41.9167 105.125 41.75 105.625C41.5 106.042 41.4167 107 41.5 108.5C41.5833 110 41.625 111.083 41.625 111.75C41.7083 112.417 41.8333 113.5 42 115C42.25 116.5 42.4167 117.458 42.5 117.875C42.8333 118.958 42.8333 119.792 42.5 120.375C42.25 120.958 41.9583 121.375 41.625 121.625C41.2917 121.792 40.75 122 40 122.25Z" fill="white"/>
<path d="M50.625 66.25L49.7306 65.8028L49.625 66.0139V66.25H50.625ZM50.75 66.625L50.0429 67.3321L50.3358 67.625H50.75V66.625ZM51.25 66.625V67.625H51.3731L51.4925 67.5951L51.25 66.625ZM52.375 66.25L52.0588 65.3013L52.0309 65.3106L52.0036 65.3215L52.375 66.25ZM54.375 65.625L54.6623 66.5828L54.687 66.5754L54.7113 66.5667L54.375 65.625ZM59 65L58.5144 65.8742L58.5334 65.8847L58.5528 65.8944L59 65ZM59.5 68.25L60.4357 68.6028L60.4502 68.5643L60.4615 68.5247L59.5 68.25ZM55.125 77.875L55.8321 78.5821L55.8824 78.5319L55.925 78.475L55.125 77.875ZM54.25 79.25L53.3309 78.8561L53.3145 78.8943L53.3013 78.9338L54.25 79.25ZM53.875 80.625L52.8944 80.4289L52.875 80.526V80.625H53.875ZM54.125 81.25L53.6778 82.1444L53.8889 82.25H54.125V81.25ZM58.375 81.75L58.5089 80.759L58.499 80.7577L58.375 81.75ZM64.5 83.375L63.9453 84.2071L63.9604 84.2171L63.9759 84.2267L64.5 83.375ZM65.75 86.375L64.7671 86.1907L64.7661 86.1961L65.75 86.375ZM64.375 88.5L63.8203 87.6679L63.7972 87.6833L63.775 87.7L64.375 88.5ZM62 89.125L62.0905 88.1291L62.0454 88.125H62V89.125ZM60.625 89L59.9179 89.7071L60.0326 89.8219L60.1778 89.8944L60.625 89ZM59.875 86.625L59.1679 87.3321L59.2826 87.4469L59.4278 87.5194L59.875 86.625ZM58.375 86.25L58.1581 87.2262L58.2162 87.2391L58.2755 87.245L58.375 86.25ZM54.125 86.125V87.125H54.145L54.165 87.1242L54.125 86.125ZM50.5 86.5L50.2575 87.4701L50.6593 87.5706L51.0145 87.3575L50.5 86.5ZM48.5 84.75L47.5513 85.0662L47.5556 85.079L47.5602 85.0917L48.5 84.75ZM49.125 81.125L50.0088 81.5929L50.125 81.3734V81.125H49.125ZM50.5 78.25L49.6221 77.7711L49.6136 77.7868L49.6056 77.8028L50.5 78.25ZM53 73.125L53.9216 73.5131L53.9251 73.5048L53.9285 73.4964L53 73.125ZM50.25 71.25L50.0075 70.2799L49.9939 70.2833L49.9804 70.287L50.25 71.25ZM43.625 70.25L44.5648 69.9083L44.5237 69.7953L44.4571 69.6953L43.625 70.25ZM46.625 64.375L47.4059 64.9997L47.4156 64.9875L47.425 64.975L46.625 64.375ZM48.375 61.875L47.5233 61.3509L47.5003 61.3884L47.4806 61.4278L48.375 61.875ZM49.625 60.25V61.25H50.1432L50.442 60.8267L49.625 60.25ZM52.5 51.25L51.6346 51.751L51.642 51.7638L51.6497 51.7764L52.5 51.25ZM52.75 47.125L52.0189 46.4427L52.0172 46.4445L52.75 47.125ZM56.25 47.5L55.4606 48.1139L55.4661 48.1209L55.4716 48.1278L56.25 47.5ZM55.125 59.125L54.2482 58.6442L54.2315 58.6745L54.217 58.7059L55.125 59.125ZM52.875 62.75L52.075 62.15L52.875 62.75ZM105.5 60.125L105.947 59.2306L105.802 59.158L105.641 59.1351L105.5 60.125ZM101.625 59.375L101.373 60.3426L101.397 60.3489L101.421 60.354L101.625 59.375ZM97.375 58.25L97.6381 57.2852L97.4678 57.2388L97.292 57.2535L97.375 58.25ZM95.5 55.25L94.5862 54.8439L94.5666 54.888L94.5513 54.9338L95.5 55.25ZM96.625 53.5L95.9665 52.7474L95.9414 52.7693L95.9179 52.7929L96.625 53.5ZM101.25 54.125L100.868 55.049L100.881 55.0547L100.895 55.06L101.25 54.125ZM105.625 55.5L105.885 54.5344L105.757 54.5H105.625V55.5ZM110.125 57.25L109.552 58.0692L109.57 58.0818L109.588 58.0937L110.125 57.25ZM109.5 65.75L108.632 65.2539L108.621 65.2735L108.61 65.2937L109.5 65.75ZM103.875 74.75L103.078 74.1461L103.071 74.1552L103.064 74.1645L103.875 74.75ZM102.75 76.875L102.554 75.8944L102.531 75.8991L102.507 75.9049L102.75 76.875ZM106.25 74.375L106.887 75.146L106.908 75.1285L106.928 75.1098L106.25 74.375ZM109.375 72.875V73.875H109.417L109.458 73.8715L109.375 72.875ZM111.5 74.375L112.436 74.7261L112.57 74.3705L112.433 74.016L111.5 74.375ZM110.25 76.5L111.003 77.1585L111.022 77.1368L111.039 77.1139L110.25 76.5ZM108 78.625L108.588 79.4337L108.611 79.417L108.633 79.399L108 78.625ZM105.625 80.375L106.155 81.223L106.191 81.2005L106.225 81.175L105.625 80.375ZM100.625 83.625L101.072 84.5194L101.153 84.4791L101.225 84.425L100.625 83.625ZM98.625 84.875L97.9179 84.1679L97.8676 84.2181L97.825 84.275L98.625 84.875ZM97.5 87L98.3638 87.5039L98.3879 87.4625L98.408 87.4191L97.5 87ZM96.375 90.625L95.3818 90.5082L95.3784 90.5371L95.3767 90.5663L96.375 90.625ZM96.75 99.125L95.7538 99.2116L95.7556 99.233L95.7584 99.2543L96.75 99.125ZM97.25 103.125L98.2495 103.095L98.2483 103.055L98.2439 103.015L97.25 103.125ZM98.75 108.5L98.0773 109.24L98.0966 109.257L98.1168 109.274L98.75 108.5ZM104.75 110.375L104.59 111.362L104.637 111.37L104.685 111.373L104.75 110.375ZM123.625 110.625L123.635 111.625L123.644 111.625L123.625 110.625ZM138.5 109.875L138.775 110.837L138.787 110.833L138.5 109.875ZM140.125 108.875L139.277 108.345L139.272 108.353L139.268 108.361L140.125 108.875ZM138.5 97.5L139.477 97.2881L139.476 97.2831L138.5 97.5ZM137.25 88.375L136.65 87.575L137.25 88.375ZM139.375 89L138.601 89.6332L138.618 89.6534L138.635 89.6727L139.375 89ZM140.75 91.25L139.76 91.3914L139.775 91.4955L139.811 91.5943L140.75 91.25ZM144.875 106.625L145.869 106.515L145.862 106.454L145.848 106.395L144.875 106.625ZM144.25 111.375L143.306 111.045L143.299 111.066L143.292 111.088L144.25 111.375ZM141.625 114.375L141.367 113.409L141.269 113.435L141.178 113.481L141.625 114.375ZM123.875 115.25V114.25H123.867L123.859 114.25L123.875 115.25ZM103.125 115.125L103.05 116.122L103.052 116.122L103.125 115.125ZM94.875 113.25L95.2941 112.342L95.2888 112.34L94.875 113.25ZM91.5 97.25L90.592 97.6691L90.6247 97.7398L90.6679 97.8047L91.5 97.25ZM92.75 83.75H93.75V83.6402L93.7262 83.5331L92.75 83.75ZM92.75 82.125L91.95 81.525L91.8959 81.5971L91.8556 81.6778L92.75 82.125ZM94.875 79.75L95.6061 80.4323L95.614 80.4238L95.6218 80.4151L94.875 79.75ZM105.75 64.625L104.866 64.1571L104.865 64.1593L105.75 64.625ZM106.75 61.625H105.75V61.6961L105.76 61.7664L106.75 61.625ZM60.75 100.125L61.4305 100.858L61.4722 100.819L61.5093 100.776L60.75 100.125ZM63.75 100L64.6444 99.5528L64.6166 99.4971L64.5821 99.4453L63.75 100ZM64.25 101.375L63.3013 101.691L63.3166 101.737L63.3362 101.781L64.25 101.375ZM66 106.25L65.0385 106.525L65.0413 106.534L65.0442 106.544L66 106.25ZM67.25 114.25L66.2885 113.975L66.2839 113.991L66.2799 114.007L67.25 114.25ZM64.5 117.125L64.2059 118.081L64.2809 118.104L64.3586 118.115L64.5 117.125ZM62.5 112.75L61.5039 112.839L61.5046 112.846L62.5 112.75ZM60.875 105.125L60.0008 105.611L60.0034 105.615L60.875 105.125ZM52.5 101.375L51.8273 102.115L51.8938 102.175L51.97 102.223L52.5 101.375ZM53.5 107.875H52.5V107.886L52.5002 107.896L53.5 107.875ZM54 114.5L54.9578 114.213L54.933 114.13L54.8944 114.053L54 114.5ZM52.75 119.125L53.4571 119.832L53.4678 119.821L53.4782 119.81L52.75 119.125ZM50.25 119.25L51.0587 118.662L51.0393 118.635L51.0182 118.61L50.25 119.25ZM49.5 115L48.5006 115.034L48.5006 115.036L49.5 115ZM49 110.375L48.0464 110.676L48.0544 110.701L48.0637 110.726L49 110.375ZM48.5 105.375L47.5092 105.24L47.5064 105.26L47.5045 105.28L48.5 105.375ZM49.875 101.375L49.1679 100.668L49.1287 100.707L49.0941 100.75L49.875 101.375ZM38.25 120.375L37.2715 120.581L37.278 120.612L37.2865 120.643L38.25 120.375ZM36.625 111L35.6579 111.254L35.6843 111.355L35.7306 111.447L36.625 111ZM36 107.875L35.0171 107.691L35 107.782V107.875H36ZM37.875 104.125L37.1422 103.445L37.1287 103.459L37.1157 103.474L37.875 104.125ZM41.25 104L42.0093 103.349L41.9722 103.306L41.9305 103.267L41.25 104ZM41.75 105.625L42.6075 106.139L42.664 106.045L42.6987 105.941L41.75 105.625ZM41.625 111.75H40.625V111.812L40.6327 111.874L41.625 111.75ZM42 115L41.0061 115.11L41.0091 115.138L41.0136 115.164L42 115ZM42.5 117.875L41.5194 118.071L41.5293 118.121L41.5442 118.169L42.5 117.875ZM42.5 120.375L41.6318 119.879L41.6034 119.929L41.5809 119.981L42.5 120.375ZM41.625 121.625L42.0722 122.519L42.1529 122.479L42.225 122.425L41.625 121.625ZM50.625 66.25H49.625C49.625 66.5708 49.7059 66.9951 50.0429 67.3321L50.75 66.625L51.4571 65.9179C51.5376 65.9984 51.5825 66.0853 51.6049 66.1525C51.6156 66.1844 51.6205 66.2097 51.6228 66.2258C51.6239 66.2339 51.6245 66.2401 51.6247 66.244C51.6249 66.246 51.6249 66.2475 51.625 66.2485C51.625 66.249 51.625 66.2494 51.625 66.2496C51.625 66.2498 51.625 66.2498 51.625 66.2499C51.625 66.2499 51.625 66.25 51.625 66.25C51.625 66.25 51.625 66.25 51.625 66.25C51.625 66.2499 51.625 66.2501 51.625 66.25C51.625 66.2499 51.625 66.2501 51.625 66.25H50.625ZM50.75 66.625V67.625C50.7502 67.625 50.7503 67.625 50.7505 67.625C50.7507 67.625 50.7508 67.625 50.751 67.625C50.7511 67.625 50.7513 67.625 50.7515 67.625C50.7516 67.625 50.7518 67.625 50.752 67.625C50.7521 67.625 50.7523 67.625 50.7525 67.625C50.7526 67.625 50.7528 67.625 50.753 67.625C50.7531 67.625 50.7533 67.625 50.7535 67.625C50.7536 67.625 50.7538 67.625 50.754 67.625C50.7541 67.625 50.7543 67.625 50.7545 67.625C50.7546 67.625 50.7548 67.625 50.755 67.625C50.7551 67.625 50.7553 67.625 50.7555 67.625C50.7557 67.625 50.7558 67.625 50.756 67.625C50.7562 67.625 50.7563 67.625 50.7565 67.625C50.7567 67.625 50.7569 67.625 50.757 67.625C50.7572 67.625 50.7574 67.625 50.7575 67.625C50.7577 67.625 50.7579 67.625 50.7581 67.625C50.7582 67.625 50.7584 67.625 50.7586 67.625C50.7587 67.625 50.7589 67.625 50.7591 67.625C50.7593 67.625 50.7594 67.625 50.7596 67.625C50.7598 67.625 50.76 67.625 50.7601 67.625C50.7603 67.625 50.7605 67.625 50.7607 67.625C50.7609 67.625 50.761 67.625 50.7612 67.625C50.7614 67.625 50.7616 67.625 50.7617 67.625C50.7619 67.625 50.7621 67.625 50.7623 67.625C50.7624 67.625 50.7626 67.625 50.7628 67.625C50.763 67.625 50.7632 67.625 50.7633 67.625C50.7635 67.625 50.7637 67.625 50.7639 67.625C50.7641 67.625 50.7642 67.625 50.7644 67.625C50.7646 67.625 50.7648 67.625 50.765 67.625C50.7651 67.625 50.7653 67.625 50.7655 67.625C50.7657 67.625 50.7659 67.625 50.7661 67.625C50.7662 67.625 50.7664 67.625 50.7666 67.625C50.7668 67.625 50.767 67.625 50.7672 67.625C50.7673 67.625 50.7675 67.625 50.7677 67.625C50.7679 67.625 50.7681 67.625 50.7683 67.625C50.7684 67.625 50.7686 67.625 50.7688 67.625C50.769 67.625 50.7692 67.625 50.7694 67.625C50.7696 67.625 50.7697 67.625 50.7699 67.625C50.7701 67.625 50.7703 67.625 50.7705 67.625C50.7707 67.625 50.7709 67.625 50.7711 67.625C50.7712 67.625 50.7714 67.625 50.7716 67.625C50.7718 67.625 50.772 67.625 50.7722 67.625C50.7724 67.625 50.7726 67.625 50.7728 67.625C50.7729 67.625 50.7731 67.625 50.7733 67.625C50.7735 67.625 50.7737 67.625 50.7739 67.625C50.7741 67.625 50.7743 67.625 50.7745 67.625C50.7747 67.625 50.7749 67.625 50.7751 67.625C50.7752 67.625 50.7754 67.625 50.7756 67.625C50.7758 67.625 50.776 67.625 50.7762 67.625C50.7764 67.625 50.7766 67.625 50.7768 67.625C50.777 67.625 50.7772 67.625 50.7774 67.625C50.7776 67.625 50.7778 67.625 50.778 67.625C50.7782 67.625 50.7784 67.625 50.7786 67.625C50.7788 67.625 50.779 67.625 50.7791 67.625C50.7793 67.625 50.7795 67.625 50.7797 67.625C50.7799 67.625 50.7801 67.625 50.7803 67.625C50.7805 67.625 50.7807 67.625 50.7809 67.625C50.7811 67.625 50.7813 67.625 50.7815 67.625C50.7817 67.625 50.7819 67.625 50.7821 67.625C50.7823 67.625 50.7825 67.625 50.7827 67.625C50.7829 67.625 50.7831 67.625 50.7833 67.625C50.7835 67.625 50.7837 67.625 50.7839 67.625C50.7841 67.625 50.7843 67.625 50.7845 67.625C50.7847 67.625 50.785 67.625 50.7852 67.625C50.7854 67.625 50.7856 67.625 50.7858 67.625C50.786 67.625 50.7862 67.625 50.7864 67.625C50.7866 67.625 50.7868 67.625 50.787 67.625C50.7872 67.625 50.7874 67.625 50.7876 67.625C50.7878 67.625 50.788 67.625 50.7882 67.625C50.7884 67.625 50.7886 67.625 50.7889 67.625C50.7891 67.625 50.7893 67.625 50.7895 67.625C50.7897 67.625 50.7899 67.625 50.7901 67.625C50.7903 67.625 50.7905 67.625 50.7907 67.625C50.7909 67.625 50.7911 67.625 50.7914 67.625C50.7916 67.625 50.7918 67.625 50.792 67.625C50.7922 67.625 50.7924 67.625 50.7926 67.625C50.7928 67.625 50.793 67.625 50.7933 67.625C50.7935 67.625 50.7937 67.625 50.7939 67.625C50.7941 67.625 50.7943 67.625 50.7945 67.625C50.7947 67.625 50.795 67.625 50.7952 67.625C50.7954 67.625 50.7956 67.625 50.7958 67.625C50.796 67.625 50.7962 67.625 50.7965 67.625C50.7967 67.625 50.7969 67.625 50.7971 67.625C50.7973 67.625 50.7975 67.625 50.7977 67.625C50.798 67.625 50.7982 67.625 50.7984 67.625C50.7986 67.625 50.7988 67.625 50.799 67.625C50.7993 67.625 50.7995 67.625 50.7997 67.625C50.7999 67.625 50.8001 67.625 50.8004 67.625C50.8006 67.625 50.8008 67.625 50.801 67.625C50.8012 67.625 50.8015 67.625 50.8017 67.625C50.8019 67.625 50.8021 67.625 50.8023 67.625C50.8026 67.625 50.8028 67.625 50.803 67.625C50.8032 67.625 50.8034 67.625 50.8037 67.625C50.8039 67.625 50.8041 67.625 50.8043 67.625C50.8045 67.625 50.8048 67.625 50.805 67.625C50.8052 67.625 50.8054 67.625 50.8057 67.625C50.8059 67.625 50.8061 67.625 50.8063 67.625C50.8066 67.625 50.8068 67.625 50.807 67.625C50.8072 67.625 50.8075 67.625 50.8077 67.625C50.8079 67.625 50.8081 67.625 50.8084 67.625C50.8086 67.625 50.8088 67.625 50.809 67.625C50.8093 67.625 50.8095 67.625 50.8097 67.625C50.81 67.625 50.8102 67.625 50.8104 67.625C50.8106 67.625 50.8109 67.625 50.8111 67.625C50.8113 67.625 50.8116 67.625 50.8118 67.625C50.812 67.625 50.8122 67.625 50.8125 67.625C50.8127 67.625 50.8129 67.625 50.8132 67.625C50.8134 67.625 50.8136 67.625 50.8139 67.625C50.8141 67.625 50.8143 67.625 50.8146 67.625C50.8148 67.625 50.815 67.625 50.8153 67.625C50.8155 67.625 50.8157 67.625 50.8159 67.625C50.8162 67.625 50.8164 67.625 50.8167 67.625C50.8169 67.625 50.8171 67.625 50.8174 67.625C50.8176 67.625 50.8178 67.625 50.8181 67.625C50.8183 67.625 50.8185 67.625 50.8188 67.625C50.819 67.625 50.8192 67.625 50.8195 67.625C50.8197 67.625 50.8199 67.625 50.8202 67.625C50.8204 67.625 50.8207 67.625 50.8209 67.625C50.8211 67.625 50.8214 67.625 50.8216 67.625C50.8218 67.625 50.8221 67.625 50.8223 67.625C50.8226 67.625 50.8228 67.625 50.823 67.625C50.8233 67.625 50.8235 67.625 50.8238 67.625C50.824 67.625 50.8242 67.625 50.8245 67.625C50.8247 67.625 50.825 67.625 50.8252 67.625C50.8255 67.625 50.8257 67.625 50.8259 67.625C50.8262 67.625 50.8264 67.625 50.8267 67.625C50.8269 67.625 50.8272 67.625 50.8274 67.625C50.8276 67.625 50.8279 67.625 50.8281 67.625C50.8284 67.625 50.8286 67.625 50.8289 67.625C50.8291 67.625 50.8293 67.625 50.8296 67.625C50.8298 67.625 50.8301 67.625 50.8303 67.625C50.8306 67.625 50.8308 67.625 50.8311 67.625C50.8313 67.625 50.8316 67.625 50.8318 67.625C50.8321 67.625 50.8323 67.625 50.8326 67.625C50.8328 67.625 50.8331 67.625 50.8333 67.625C50.8335 67.625 50.8338 67.625 50.834 67.625C50.8343 67.625 50.8345 67.625 50.8348 67.625C50.835 67.625 50.8353 67.625 50.8355 67.625C50.8358 67.625 50.836 67.625 50.8363 67.625C50.8365 67.625 50.8368 67.625 50.8371 67.625C50.8373 67.625 50.8376 67.625 50.8378 67.625C50.8381 67.625 50.8383 67.625 50.8386 67.625C50.8388 67.625 50.8391 67.625 50.8393 67.625C50.8396 67.625 50.8398 67.625 50.8401 67.625C50.8403 67.625 50.8406 67.625 50.8409 67.625C50.8411 67.625 50.8414 67.625 50.8416 67.625C50.8419 67.625 50.8421 67.625 50.8424 67.625C50.8426 67.625 50.8429 67.625 50.8432 67.625C50.8434 67.625 50.8437 67.625 50.8439 67.625C50.8442 67.625 50.8444 67.625 50.8447 67.625C50.845 67.625 50.8452 67.625 50.8455 67.625C50.8457 67.625 50.846 67.625 50.8463 67.625C50.8465 67.625 50.8468 67.625 50.847 67.625C50.8473 67.625 50.8476 67.625 50.8478 67.625C50.8481 67.625 50.8483 67.625 50.8486 67.625C50.8489 67.625 50.8491 67.625 50.8494 67.625C50.8496 67.625 50.8499 67.625 50.8502 67.625C50.8504 67.625 50.8507 67.625 50.851 67.625C50.8512 67.625 50.8515 67.625 50.8517 67.625C50.852 67.625 50.8523 67.625 50.8525 67.625C50.8528 67.625 50.8531 67.625 50.8533 67.625C50.8536 67.625 50.8539 67.625 50.8541 67.625C50.8544 67.625 50.8547 67.625 50.8549 67.625C50.8552 67.625 50.8555 67.625 50.8557 67.625C50.856 67.625 50.8563 67.625 50.8565 67.625C50.8568 67.625 50.8571 67.625 50.8573 67.625C50.8576 67.625 50.8579 67.625 50.8581 67.625C50.8584 67.625 50.8587 67.625 50.8589 67.625C50.8592 67.625 50.8595 67.625 50.8598 67.625C50.86 67.625 50.8603 67.625 50.8606 67.625C50.8608 67.625 50.8611 67.625 50.8614 67.625C50.8617 67.625 50.8619 67.625 50.8622 67.625C50.8625 67.625 50.8627 67.625 50.863 67.625C50.8633 67.625 50.8636 67.625 50.8638 67.625C50.8641 67.625 50.8644 67.625 50.8647 67.625C50.8649 67.625 50.8652 67.625 50.8655 67.625C50.8658 67.625 50.866 67.625 50.8663 67.625C50.8666 67.625 50.8669 67.625 50.8671 67.625C50.8674 67.625 50.8677 67.625 50.868 67.625C50.8682 67.625 50.8685 67.625 50.8688 67.625C50.8691 67.625 50.8693 67.625 50.8696 67.625C50.8699 67.625 50.8702 67.625 50.8705 67.625C50.8707 67.625 50.871 67.625 50.8713 67.625C50.8716 67.625 50.8719 67.625 50.8721 67.625C50.8724 67.625 50.8727 67.625 50.873 67.625C50.8733 67.625 50.8735 67.625 50.8738 67.625C50.8741 67.625 50.8744 67.625 50.8747 67.625C50.8749 67.625 50.8752 67.625 50.8755 67.625C50.8758 67.625 50.8761 67.625 50.8764 67.625C50.8766 67.625 50.8769 67.625 50.8772 67.625C50.8775 67.625 50.8778 67.625 50.8781 67.625C50.8783 67.625 50.8786 67.625 50.8789 67.625C50.8792 67.625 50.8795 67.625 50.8798 67.625C50.88 67.625 50.8803 67.625 50.8806 67.625C50.8809 67.625 50.8812 67.625 50.8815 67.625C50.8818 67.625 50.8821 67.625 50.8823 67.625C50.8826 67.625 50.8829 67.625 50.8832 67.625C50.8835 67.625 50.8838 67.625 50.8841 67.625C50.8844 67.625 50.8846 67.625 50.8849 67.625C50.8852 67.625 50.8855 67.625 50.8858 67.625C50.8861 67.625 50.8864 67.625 50.8867 67.625C50.887 67.625 50.8873 67.625 50.8875 67.625C50.8878 67.625 50.8881 67.625 50.8884 67.625C50.8887 67.625 50.889 67.625 50.8893 67.625C50.8896 67.625 50.8899 67.625 50.8902 67.625C50.8905 67.625 50.8908 67.625 50.8911 67.625C50.8913 67.625 50.8916 67.625 50.8919 67.625C50.8922 67.625 50.8925 67.625 50.8928 67.625C50.8931 67.625 50.8934 67.625 50.8937 67.625C50.894 67.625 50.8943 67.625 50.8946 67.625C50.8949 67.625 50.8952 67.625 50.8955 67.625C50.8958 67.625 50.8961 67.625 50.8964 67.625C50.8967 67.625 50.897 67.625 50.8973 67.625C50.8976 67.625 50.8979 67.625 50.8982 67.625C50.8985 67.625 50.8988 67.625 50.8991 67.625C50.8994 67.625 50.8997 67.625 50.9 67.625C50.9003 67.625 50.9006 67.625 50.9009 67.625C50.9012 67.625 50.9015 67.625 50.9018 67.625C50.9021 67.625 50.9024 67.625 50.9027 67.625C50.903 67.625 50.9033 67.625 50.9036 67.625C50.9039 67.625 50.9042 67.625 50.9045 67.625C50.9048 67.625 50.9051 67.625 50.9054 67.625C50.9057 67.625 50.906 67.625 50.9063 67.625C50.9066 67.625 50.9069 67.625 50.9072 67.625C50.9075 67.625 50.9078 67.625 50.9081 67.625C50.9084 67.625 50.9088 67.625 50.9091 67.625C50.9094 67.625 50.9097 67.625 50.91 67.625C50.9103 67.625 50.9106 67.625 50.9109 67.625C50.9112 67.625 50.9115 67.625 50.9118 67.625C50.9121 67.625 50.9124 67.625 50.9128 67.625C50.9131 67.625 50.9134 67.625 50.9137 67.625C50.914 67.625 50.9143 67.625 50.9146 67.625C50.9149 67.625 50.9152 67.625 50.9155 67.625C50.9159 67.625 50.9162 67.625 50.9165 67.625C50.9168 67.625 50.9171 67.625 50.9174 67.625C50.9177 67.625 50.918 67.625 50.9184 67.625C50.9187 67.625 50.919 67.625 50.9193 67.625C50.9196 67.625 50.9199 67.625 50.9202 67.625C50.9205 67.625 50.9209 67.625 50.9212 67.625C50.9215 67.625 50.9218 67.625 50.9221 67.625C50.9224 67.625 50.9228 67.625 50.9231 67.625C50.9234 67.625 50.9237 67.625 50.924 67.625C50.9243 67.625 50.9246 67.625 50.925 67.625C50.9253 67.625 50.9256 67.625 50.9259 67.625C50.9262 67.625 50.9266 67.625 50.9269 67.625C50.9272 67.625 50.9275 67.625 50.9278 67.625C50.9281 67.625 50.9285 67.625 50.9288 67.625C50.9291 67.625 50.9294 67.625 50.9297 67.625C50.9301 67.625 50.9304 67.625 50.9307 67.625C50.931 67.625 50.9314 67.625 50.9317 67.625C50.932 67.625 50.9323 67.625 50.9326 67.625C50.933 67.625 50.9333 67.625 50.9336 67.625C50.9339 67.625 50.9343 67.625 50.9346 67.625C50.9349 67.625 50.9352 67.625 50.9356 67.625C50.9359 67.625 50.9362 67.625 50.9365 67.625C50.9368 67.625 50.9372 67.625 50.9375 67.625C50.9378 67.625 50.9382 67.625 50.9385 67.625C50.9388 67.625 50.9391 67.625 50.9395 67.625C50.9398 67.625 50.9401 67.625 50.9404 67.625C50.9408 67.625 50.9411 67.625 50.9414 67.625C50.9417 67.625 50.9421 67.625 50.9424 67.625C50.9427 67.625 50.9431 67.625 50.9434 67.625C50.9437 67.625 50.9441 67.625 50.9444 67.625C50.9447 67.625 50.945 67.625 50.9454 67.625C50.9457 67.625 50.946 67.625 50.9464 67.625C50.9467 67.625 50.947 67.625 50.9474 67.625C50.9477 67.625 50.948 67.625 50.9484 67.625C50.9487 67.625 50.949 67.625 50.9494 67.625C50.9497 67.625 50.95 67.625 50.9504 67.625C50.9507 67.625 50.951 67.625 50.9514 67.625C50.9517 67.625 50.952 67.625 50.9524 67.625C50.9527 67.625 50.953 67.625 50.9534 67.625C50.9537 67.625 50.954 67.625 50.9544 67.625C50.9547 67.625 50.9551 67.625 50.9554 67.625C50.9557 67.625 50.9561 67.625 50.9564 67.625C50.9567 67.625 50.9571 67.625 50.9574 67.625C50.9578 67.625 50.9581 67.625 50.9584 67.625C50.9588 67.625 50.9591 67.625 50.9594 67.625C50.9598 67.625 50.9601 67.625 50.9605 67.625C50.9608 67.625 50.9611 67.625 50.9615 67.625C50.9618 67.625 50.9622 67.625 50.9625 67.625C50.9629 67.625 50.9632 67.625 50.9635 67.625C50.9639 67.625 50.9642 67.625 50.9646 67.625C50.9649 67.625 50.9652 67.625 50.9656 67.625C50.9659 67.625 50.9663 67.625 50.9666 67.625C50.967 67.625 50.9673 67.625 50.9677 67.625C50.968 67.625 50.9683 67.625 50.9687 67.625C50.969 67.625 50.9694 67.625 50.9697 67.625C50.9701 67.625 50.9704 67.625 50.9708 67.625C50.9711 67.625 50.9715 67.625 50.9718 67.625C50.9722 67.625 50.9725 67.625 50.9728 67.625C50.9732 67.625 50.9735 67.625 50.9739 67.625C50.9742 67.625 50.9746 67.625 50.9749 67.625C50.9753 67.625 50.9756 67.625 50.976 67.625C50.9763 67.625 50.9767 67.625 50.977 67.625C50.9774 67.625 50.9777 67.625 50.9781 67.625C50.9784 67.625 50.9788 67.625 50.9791 67.625C50.9795 67.625 50.9798 67.625 50.9802 67.625C50.9806 67.625 50.9809 67.625 50.9813 67.625C50.9816 67.625 50.982 67.625 50.9823 67.625C50.9827 67.625 50.983 67.625 50.9834 67.625C50.9837 67.625 50.9841 67.625 50.9844 67.625C50.9848 67.625 50.9851 67.625 50.9855 67.625C50.9859 67.625 50.9862 67.625 50.9866 67.625C50.9869 67.625 50.9873 67.625 50.9876 67.625C50.988 67.625 50.9884 67.625 50.9887 67.625C50.9891 67.625 50.9894 67.625 50.9898 67.625C50.9901 67.625 50.9905 67.625 50.9909 67.625C50.9912 67.625 50.9916 67.625 50.9919 67.625C50.9923 67.625 50.9927 67.625 50.993 67.625C50.9934 67.625 50.9937 67.625 50.9941 67.625C50.9945 67.625 50.9948 67.625 50.9952 67.625C50.9955 67.625 50.9959 67.625 50.9963 67.625C50.9966 67.625 50.997 67.625 50.9973 67.625C50.9977 67.625 50.9981 67.625 50.9984 67.625C50.9988 67.625 50.9992 67.625 50.9995 67.625C50.9999 67.625 51.0003 67.625 51.0006 67.625C51.001 67.625 51.0013 67.625 51.0017 67.625C51.0021 67.625 51.0024 67.625 51.0028 67.625C51.0032 67.625 51.0035 67.625 51.0039 67.625C51.0043 67.625 51.0046 67.625 51.005 67.625C51.0054 67.625 51.0057 67.625 51.0061 67.625C51.0065 67.625 51.0068 67.625 51.0072 67.625C51.0076 67.625 51.0079 67.625 51.0083 67.625C51.0087 67.625 51.0091 67.625 51.0094 67.625C51.0098 67.625 51.0102 67.625 51.0105 67.625C51.0109 67.625 51.0113 67.625 51.0116 67.625C51.012 67.625 51.0124 67.625 51.0128 67.625C51.0131 67.625 51.0135 67.625 51.0139 67.625C51.0142 67.625 51.0146 67.625 51.015 67.625C51.0154 67.625 51.0157 67.625 51.0161 67.625C51.0165 67.625 51.0169 67.625 51.0172 67.625C51.0176 67.625 51.018 67.625 51.0183 67.625C51.0187 67.625 51.0191 67.625 51.0195 67.625C51.0198 67.625 51.0202 67.625 51.0206 67.625C51.021 67.625 51.0214 67.625 51.0217 67.625C51.0221 67.625 51.0225 67.625 51.0229 67.625C51.0232 67.625 51.0236 67.625 51.024 67.625C51.0244 67.625 51.0247 67.625 51.0251 67.625C51.0255 67.625 51.0259 67.625 51.0263 67.625C51.0266 67.625 51.027 67.625 51.0274 67.625C51.0278 67.625 51.0282 67.625 51.0285 67.625C51.0289 67.625 51.0293 67.625 51.0297 67.625C51.0301 67.625 51.0304 67.625 51.0308 67.625C51.0312 67.625 51.0316 67.625 51.032 67.625C51.0324 67.625 51.0327 67.625 51.0331 67.625C51.0335 67.625 51.0339 67.625 51.0343 67.625C51.0346 67.625 51.035 67.625 51.0354 67.625C51.0358 67.625 51.0362 67.625 51.0366 67.625C51.037 67.625 51.0373 67.625 51.0377 67.625C51.0381 67.625 51.0385 67.625 51.0389 67.625C51.0393 67.625 51.0397 67.625 51.04 67.625C51.0404 67.625 51.0408 67.625 51.0412 67.625C51.0416 67.625 51.042 67.625 51.0424 67.625C51.0428 67.625 51.0431 67.625 51.0435 67.625C51.0439 67.625 51.0443 67.625 51.0447 67.625C51.0451 67.625 51.0455 67.625 51.0459 67.625C51.0463 67.625 51.0466 67.625 51.047 67.625C51.0474 67.625 51.0478 67.625 51.0482 67.625C51.0486 67.625 51.049 67.625 51.0494 67.625C51.0498 67.625 51.0502 67.625 51.0506 67.625C51.0509 67.625 51.0513 67.625 51.0517 67.625C51.0521 67.625 51.0525 67.625 51.0529 67.625C51.0533 67.625 51.0537 67.625 51.0541 67.625C51.0545 67.625 51.0549 67.625 51.0553 67.625C51.0557 67.625 51.0561 67.625 51.0565 67.625C51.0569 67.625 51.0573 67.625 51.0576 67.625C51.058 67.625 51.0584 67.625 51.0588 67.625C51.0592 67.625 51.0596 67.625 51.06 67.625C51.0604 67.625 51.0608 67.625 51.0612 67.625C51.0616 67.625 51.062 67.625 51.0624 67.625C51.0628 67.625 51.0632 67.625 51.0636 67.625C51.064 67.625 51.0644 67.625 51.0648 67.625C51.0652 67.625 51.0656 67.625 51.066 67.625C51.0664 67.625 51.0668 67.625 51.0672 67.625C51.0676 67.625 51.068 67.625 51.0684 67.625C51.0688 67.625 51.0692 67.625 51.0696 67.625C51.07 67.625 51.0704 67.625 51.0708 67.625C51.0712 67.625 51.0716 67.625 51.072 67.625C51.0724 67.625 51.0729 67.625 51.0733 67.625C51.0737 67.625 51.0741 67.625 51.0745 67.625C51.0749 67.625 51.0753 67.625 51.0757 67.625C51.0761 67.625 51.0765 67.625 51.0769 67.625C51.0773 67.625 51.0777 67.625 51.0781 67.625C51.0785 67.625 51.0789 67.625 51.0793 67.625C51.0798 67.625 51.0802 67.625 51.0806 67.625C51.081 67.625 51.0814 67.625 51.0818 67.625C51.0822 67.625 51.0826 67.625 51.083 67.625C51.0834 67.625 51.0838 67.625 51.0843 67.625C51.0847 67.625 51.0851 67.625 51.0855 67.625C51.0859 67.625 51.0863 67.625 51.0867 67.625C51.0871 67.625 51.0875 67.625 51.088 67.625C51.0884 67.625 51.0888 67.625 51.0892 67.625C51.0896 67.625 51.09 67.625 51.0904 67.625C51.0908 67.625 51.0913 67.625 51.0917 67.625C51.0921 67.625 51.0925 67.625 51.0929 67.625C51.0933 67.625 51.0937 67.625 51.0942 67.625C51.0946 67.625 51.095 67.625 51.0954 67.625C51.0958 67.625 51.0962 67.625 51.0967 67.625C51.0971 67.625 51.0975 67.625 51.0979 67.625C51.0983 67.625 51.0987 67.625 51.0992 67.625C51.0996 67.625 51.1 67.625 51.1004 67.625C51.1008 67.625 51.1012 67.625 51.1017 67.625C51.1021 67.625 51.1025 67.625 51.1029 67.625C51.1033 67.625 51.1038 67.625 51.1042 67.625C51.1046 67.625 51.105 67.625 51.1054 67.625C51.1059 67.625 51.1063 67.625 51.1067 67.625C51.1071 67.625 51.1075 67.625 51.108 67.625C51.1084 67.625 51.1088 67.625 51.1092 67.625C51.1097 67.625 51.1101 67.625 51.1105 67.625C51.1109 67.625 51.1114 67.625 51.1118 67.625C51.1122 67.625 51.1126 67.625 51.1131 67.625C51.1135 67.625 51.1139 67.625 51.1143 67.625C51.1148 67.625 51.1152 67.625 51.1156 67.625C51.116 67.625 51.1165 67.625 51.1169 67.625C51.1173 67.625 51.1177 67.625 51.1182 67.625C51.1186 67.625 51.119 67.625 51.1194 67.625C51.1199 67.625 51.1203 67.625 51.1207 67.625C51.1212 67.625 51.1216 67.625 51.122 67.625C51.1224 67.625 51.1229 67.625 51.1233 67.625C51.1237 67.625 51.1242 67.625 51.1246 67.625C51.125 67.625 51.1255 67.625 51.1259 67.625C51.1263 67.625 51.1268 67.625 51.1272 67.625C51.1276 67.625 51.128 67.625 51.1285 67.625C51.1289 67.625 51.1293 67.625 51.1298 67.625C51.1302 67.625 51.1306 67.625 51.1311 67.625C51.1315 67.625 51.1319 67.625 51.1324 67.625C51.1328 67.625 51.1332 67.625 51.1337 67.625C51.1341 67.625 51.1346 67.625 51.135 67.625C51.1354 67.625 51.1359 67.625 51.1363 67.625C51.1367 67.625 51.1372 67.625 51.1376 67.625C51.138 67.625 51.1385 67.625 51.1389 67.625C51.1394 67.625 51.1398 67.625 51.1402 67.625C51.1407 67.625 51.1411 67.625 51.1415 67.625C51.142 67.625 51.1424 67.625 51.1429 67.625C51.1433 67.625 51.1437 67.625 51.1442 67.625C51.1446 67.625 51.1451 67.625 51.1455 67.625C51.1459 67.625 51.1464 67.625 51.1468 67.625C51.1473 67.625 51.1477 67.625 51.1481 67.625C51.1486 67.625 51.149 67.625 51.1495 67.625C51.1499 67.625 51.1504 67.625 51.1508 67.625C51.1512 67.625 51.1517 67.625 51.1521 67.625C51.1526 67.625 51.153 67.625 51.1535 67.625C51.1539 67.625 51.1544 67.625 51.1548 67.625C51.1552 67.625 51.1557 67.625 51.1561 67.625C51.1566 67.625 51.157 67.625 51.1575 67.625C51.1579 67.625 51.1584 67.625 51.1588 67.625C51.1593 67.625 51.1597 67.625 51.1602 67.625C51.1606 67.625 51.1611 67.625 51.1615 67.625C51.1619 67.625 51.1624 67.625 51.1628 67.625C51.1633 67.625 51.1637 67.625 51.1642 67.625C51.1646 67.625 51.1651 67.625 51.1655 67.625C51.166 67.625 51.1664 67.625 51.1669 67.625C51.1673 67.625 51.1678 67.625 51.1682 67.625C51.1687 67.625 51.1692 67.625 51.1696 67.625C51.1701 67.625 51.1705 67.625 51.171 67.625C51.1714 67.625 51.1719 67.625 51.1723 67.625C51.1728 67.625 51.1732 67.625 51.1737 67.625C51.1741 67.625 51.1746 67.625 51.175 67.625C51.1755 67.625 51.176 67.625 51.1764 67.625C51.1769 67.625 51.1773 67.625 51.1778 67.625C51.1782 67.625 51.1787 67.625 51.1791 67.625C51.1796 67.625 51.1801 67.625 51.1805 67.625C51.181 67.625 51.1814 67.625 51.1819 67.625C51.1823 67.625 51.1828 67.625 51.1833 67.625C51.1837 67.625 51.1842 67.625 51.1846 67.625C51.1851 67.625 51.1856 67.625 51.186 67.625C51.1865 67.625 51.1869 67.625 51.1874 67.625C51.1879 67.625 51.1883 67.625 51.1888 67.625C51.1892 67.625 51.1897 67.625 51.1902 67.625C51.1906 67.625 51.1911 67.625 51.1915 67.625C51.192 67.625 51.1925 67.625 51.1929 67.625C51.1934 67.625 51.1939 67.625 51.1943 67.625C51.1948 67.625 51.1952 67.625 51.1957 67.625C51.1962 67.625 51.1966 67.625 51.1971 67.625C51.1976 67.625 51.198 67.625 51.1985 67.625C51.199 67.625 51.1994 67.625 51.1999 67.625C51.2004 67.625 51.2008 67.625 51.2013 67.625C51.2018 67.625 51.2022 67.625 51.2027 67.625C51.2032 67.625 51.2036 67.625 51.2041 67.625C51.2046 67.625 51.205 67.625 51.2055 67.625C51.206 67.625 51.2064 67.625 51.2069 67.625C51.2074 67.625 51.2079 67.625 51.2083 67.625C51.2088 67.625 51.2093 67.625 51.2097 67.625C51.2102 67.625 51.2107 67.625 51.2111 67.625C51.2116 67.625 51.2121 67.625 51.2126 67.625C51.213 67.625 51.2135 67.625 51.214 67.625C51.2144 67.625 51.2149 67.625 51.2154 67.625C51.2159 67.625 51.2163 67.625 51.2168 67.625C51.2173 67.625 51.2178 67.625 51.2182 67.625C51.2187 67.625 51.2192 67.625 51.2197 67.625C51.2201 67.625 51.2206 67.625 51.2211 67.625C51.2216 67.625 51.222 67.625 51.2225 67.625C51.223 67.625 51.2235 67.625 51.2239 67.625C51.2244 67.625 51.2249 67.625 51.2254 67.625C51.2259 67.625 51.2263 67.625 51.2268 67.625C51.2273 67.625 51.2278 67.625 51.2282 67.625C51.2287 67.625 51.2292 67.625 51.2297 67.625C51.2302 67.625 51.2306 67.625 51.2311 67.625C51.2316 67.625 51.2321 67.625 51.2326 67.625C51.233 67.625 51.2335 67.625 51.234 67.625C51.2345 67.625 51.235 67.625 51.2354 67.625C51.2359 67.625 51.2364 67.625 51.2369 67.625C51.2374 67.625 51.2379 67.625 51.2383 67.625C51.2388 67.625 51.2393 67.625 51.2398 67.625C51.2403 67.625 51.2408 67.625 51.2412 67.625C51.2417 67.625 51.2422 67.625 51.2427 67.625C51.2432 67.625 51.2437 67.625 51.2442 67.625C51.2446 67.625 51.2451 67.625 51.2456 67.625C51.2461 67.625 51.2466 67.625 51.2471 67.625C51.2476 67.625 51.248 67.625 51.2485 67.625C51.249 67.625 51.2495 67.625 51.25 67.625V66.625V65.625C51.2495 65.625 51.249 65.625 51.2485 65.625C51.248 65.625 51.2476 65.625 51.2471 65.625C51.2466 65.625 51.2461 65.625 51.2456 65.625C51.2451 65.625 51.2446 65.625 51.2442 65.625C51.2437 65.625 51.2432 65.625 51.2427 65.625C51.2422 65.625 51.2417 65.625 51.2412 65.625C51.2408 65.625 51.2403 65.625 51.2398 65.625C51.2393 65.625 51.2388 65.625 51.2383 65.625C51.2379 65.625 51.2374 65.625 51.2369 65.625C51.2364 65.625 51.2359 65.625 51.2354 65.625C51.235 65.625 51.2345 65.625 51.234 65.625C51.2335 65.625 51.233 65.625 51.2326 65.625C51.2321 65.625 51.2316 65.625 51.2311 65.625C51.2306 65.625 51.2302 65.625 51.2297 65.625C51.2292 65.625 51.2287 65.625 51.2282 65.625C51.2278 65.625 51.2273 65.625 51.2268 65.625C51.2263 65.625 51.2259 65.625 51.2254 65.625C51.2249 65.625 51.2244 65.625 51.2239 65.625C51.2235 65.625 51.223 65.625 51.2225 65.625C51.222 65.625 51.2216 65.625 51.2211 65.625C51.2206 65.625 51.2201 65.625 51.2197 65.625C51.2192 65.625 51.2187 65.625 51.2182 65.625C51.2178 65.625 51.2173 65.625 51.2168 65.625C51.2163 65.625 51.2159 65.625 51.2154 65.625C51.2149 65.625 51.2144 65.625 51.214 65.625C51.2135 65.625 51.213 65.625 51.2126 65.625C51.2121 65.625 51.2116 65.625 51.2111 65.625C51.2107 65.625 51.2102 65.625 51.2097 65.625C51.2093 65.625 51.2088 65.625 51.2083 65.625C51.2079 65.625 51.2074 65.625 51.2069 65.625C51.2064 65.625 51.206 65.625 51.2055 65.625C51.205 65.625 51.2046 65.625 51.2041 65.625C51.2036 65.625 51.2032 65.625 51.2027 65.625C51.2022 65.625 51.2018 65.625 51.2013 65.625C51.2008 65.625 51.2004 65.625 51.1999 65.625C51.1994 65.625 51.199 65.625 51.1985 65.625C51.198 65.625 51.1976 65.625 51.1971 65.625C51.1966 65.625 51.1962 65.625 51.1957 65.625C51.1952 65.625 51.1948 65.625 51.1943 65.625C51.1939 65.625 51.1934 65.625 51.1929 65.625C51.1925 65.625 51.192 65.625 51.1915 65.625C51.1911 65.625 51.1906 65.625 51.1902 65.625C51.1897 65.625 51.1892 65.625 51.1888 65.625C51.1883 65.625 51.1879 65.625 51.1874 65.625C51.1869 65.625 51.1865 65.625 51.186 65.625C51.1856 65.625 51.1851 65.625 51.1846 65.625C51.1842 65.625 51.1837 65.625 51.1833 65.625C51.1828 65.625 51.1823 65.625 51.1819 65.625C51.1814 65.625 51.181 65.625 51.1805 65.625C51.1801 65.625 51.1796 65.625 51.1791 65.625C51.1787 65.625 51.1782 65.625 51.1778 65.625C51.1773 65.625 51.1769 65.625 51.1764 65.625C51.176 65.625 51.1755 65.625 51.175 65.625C51.1746 65.625 51.1741 65.625 51.1737 65.625C51.1732 65.625 51.1728 65.625 51.1723 65.625C51.1719 65.625 51.1714 65.625 51.171 65.625C51.1705 65.625 51.1701 65.625 51.1696 65.625C51.1692 65.625 51.1687 65.625 51.1682 65.625C51.1678 65.625 51.1673 65.625 51.1669 65.625C51.1664 65.625 51.166 65.625 51.1655 65.625C51.1651 65.625 51.1646 65.625 51.1642 65.625C51.1637 65.625 51.1633 65.625 51.1628 65.625C51.1624 65.625 51.1619 65.625 51.1615 65.625C51.1611 65.625 51.1606 65.625 51.1602 65.625C51.1597 65.625 51.1593 65.625 51.1588 65.625C51.1584 65.625 51.1579 65.625 51.1575 65.625C51.157 65.625 51.1566 65.625 51.1561 65.625C51.1557 65.625 51.1552 65.625 51.1548 65.625C51.1544 65.625 51.1539 65.625 51.1535 65.625C51.153 65.625 51.1526 65.625 51.1521 65.625C51.1517 65.625 51.1512 65.625 51.1508 65.625C51.1504 65.625 51.1499 65.625 51.1495 65.625C51.149 65.625 51.1486 65.625 51.1481 65.625C51.1477 65.625 51.1473 65.625 51.1468 65.625C51.1464 65.625 51.1459 65.625 51.1455 65.625C51.1451 65.625 51.1446 65.625 51.1442 65.625C51.1437 65.625 51.1433 65.625 51.1429 65.625C51.1424 65.625 51.142 65.625 51.1415 65.625C51.1411 65.625 51.1407 65.625 51.1402 65.625C51.1398 65.625 51.1394 65.625 51.1389 65.625C51.1385 65.625 51.138 65.625 51.1376 65.625C51.1372 65.625 51.1367 65.625 51.1363 65.625C51.1359 65.625 51.1354 65.625 51.135 65.625C51.1346 65.625 51.1341 65.625 51.1337 65.625C51.1332 65.625 51.1328 65.625 51.1324 65.625C51.1319 65.625 51.1315 65.625 51.1311 65.625C51.1306 65.625 51.1302 65.625 51.1298 65.625C51.1293 65.625 51.1289 65.625 51.1285 65.625C51.128 65.625 51.1276 65.625 51.1272 65.625C51.1268 65.625 51.1263 65.625 51.1259 65.625C51.1255 65.625 51.125 65.625 51.1246 65.625C51.1242 65.625 51.1237 65.625 51.1233 65.625C51.1229 65.625 51.1224 65.625 51.122 65.625C51.1216 65.625 51.1212 65.625 51.1207 65.625C51.1203 65.625 51.1199 65.625 51.1194 65.625C51.119 65.625 51.1186 65.625 51.1182 65.625C51.1177 65.625 51.1173 65.625 51.1169 65.625C51.1165 65.625 51.116 65.625 51.1156 65.625C51.1152 65.625 51.1148 65.625 51.1143 65.625C51.1139 65.625 51.1135 65.625 51.1131 65.625C51.1126 65.625 51.1122 65.625 51.1118 65.625C51.1114 65.625 51.1109 65.625 51.1105 65.625C51.1101 65.625 51.1097 65.625 51.1092 65.625C51.1088 65.625 51.1084 65.625 51.108 65.625C51.1075 65.625 51.1071 65.625 51.1067 65.625C51.1063 65.625 51.1059 65.625 51.1054 65.625C51.105 65.625 51.1046 65.625 51.1042 65.625C51.1038 65.625 51.1033 65.625 51.1029 65.625C51.1025 65.625 51.1021 65.625 51.1017 65.625C51.1012 65.625 51.1008 65.625 51.1004 65.625C51.1 65.625 51.0996 65.625 51.0992 65.625C51.0987 65.625 51.0983 65.625 51.0979 65.625C51.0975 65.625 51.0971 65.625 51.0967 65.625C51.0962 65.625 51.0958 65.625 51.0954 65.625C51.095 65.625 51.0946 65.625 51.0942 65.625C51.0937 65.625 51.0933 65.625 51.0929 65.625C51.0925 65.625 51.0921 65.625 51.0917 65.625C51.0913 65.625 51.0908 65.625 51.0904 65.625C51.09 65.625 51.0896 65.625 51.0892 65.625C51.0888 65.625 51.0884 65.625 51.088 65.625C51.0875 65.625 51.0871 65.625 51.0867 65.625C51.0863 65.625 51.0859 65.625 51.0855 65.625C51.0851 65.625 51.0847 65.625 51.0843 65.625C51.0838 65.625 51.0834 65.625 51.083 65.625C51.0826 65.625 51.0822 65.625 51.0818 65.625C51.0814 65.625 51.081 65.625 51.0806 65.625C51.0802 65.625 51.0798 65.625 51.0793 65.625C51.0789 65.625 51.0785 65.625 51.0781 65.625C51.0777 65.625 51.0773 65.625 51.0769 65.625C51.0765 65.625 51.0761 65.625 51.0757 65.625C51.0753 65.625 51.0749 65.625 51.0745 65.625C51.0741 65.625 51.0737 65.625 51.0733 65.625C51.0729 65.625 51.0724 65.625 51.072 65.625C51.0716 65.625 51.0712 65.625 51.0708 65.625C51.0704 65.625 51.07 65.625 51.0696 65.625C51.0692 65.625 51.0688 65.625 51.0684 65.625C51.068 65.625 51.0676 65.625 51.0672 65.625C51.0668 65.625 51.0664 65.625 51.066 65.625C51.0656 65.625 51.0652 65.625 51.0648 65.625C51.0644 65.625 51.064 65.625 51.0636 65.625C51.0632 65.625 51.0628 65.625 51.0624 65.625C51.062 65.625 51.0616 65.625 51.0612 65.625C51.0608 65.625 51.0604 65.625 51.06 65.625C51.0596 65.625 51.0592 65.625 51.0588 65.625C51.0584 65.625 51.058 65.625 51.0576 65.625C51.0573 65.625 51.0569 65.625 51.0565 65.625C51.0561 65.625 51.0557 65.625 51.0553 65.625C51.0549 65.625 51.0545 65.625 51.0541 65.625C51.0537 65.625 51.0533 65.625 51.0529 65.625C51.0525 65.625 51.0521 65.625 51.0517 65.625C51.0513 65.625 51.0509 65.625 51.0506 65.625C51.0502 65.625 51.0498 65.625 51.0494 65.625C51.049 65.625 51.0486 65.625 51.0482 65.625C51.0478 65.625 51.0474 65.625 51.047 65.625C51.0466 65.625 51.0463 65.625 51.0459 65.625C51.0455 65.625 51.0451 65.625 51.0447 65.625C51.0443 65.625 51.0439 65.625 51.0435 65.625C51.0431 65.625 51.0428 65.625 51.0424 65.625C51.042 65.625 51.0416 65.625 51.0412 65.625C51.0408 65.625 51.0404 65.625 51.04 65.625C51.0397 65.625 51.0393 65.625 51.0389 65.625C51.0385 65.625 51.0381 65.625 51.0377 65.625C51.0373 65.625 51.037 65.625 51.0366 65.625C51.0362 65.625 51.0358 65.625 51.0354 65.625C51.035 65.625 51.0346 65.625 51.0343 65.625C51.0339 65.625 51.0335 65.625 51.0331 65.625C51.0327 65.625 51.0324 65.625 51.032 65.625C51.0316 65.625 51.0312 65.625 51.0308 65.625C51.0304 65.625 51.0301 65.625 51.0297 65.625C51.0293 65.625 51.0289 65.625 51.0285 65.625C51.0282 65.625 51.0278 65.625 51.0274 65.625C51.027 65.625 51.0266 65.625 51.0263 65.625C51.0259 65.625 51.0255 65.625 51.0251 65.625C51.0247 65.625 51.0244 65.625 51.024 65.625C51.0236 65.625 51.0232 65.625 51.0229 65.625C51.0225 65.625 51.0221 65.625 51.0217 65.625C51.0214 65.625 51.021 65.625 51.0206 65.625C51.0202 65.625 51.0198 65.625 51.0195 65.625C51.0191 65.625 51.0187 65.625 51.0183 65.625C51.018 65.625 51.0176 65.625 51.0172 65.625C51.0169 65.625 51.0165 65.625 51.0161 65.625C51.0157 65.625 51.0154 65.625 51.015 65.625C51.0146 65.625 51.0142 65.625 51.0139 65.625C51.0135 65.625 51.0131 65.625 51.0128 65.625C51.0124 65.625 51.012 65.625 51.0116 65.625C51.0113 65.625 51.0109 65.625 51.0105 65.625C51.0102 65.625 51.0098 65.625 51.0094 65.625C51.0091 65.625 51.0087 65.625 51.0083 65.625C51.0079 65.625 51.0076 65.625 51.0072 65.625C51.0068 65.625 51.0065 65.625 51.0061 65.625C51.0057 65.625 51.0054 65.625 51.005 65.625C51.0046 65.625 51.0043 65.625 51.0039 65.625C51.0035 65.625 51.0032 65.625 51.0028 65.625C51.0024 65.625 51.0021 65.625 51.0017 65.625C51.0013 65.625 51.001 65.625 51.0006 65.625C51.0003 65.625 50.9999 65.625 50.9995 65.625C50.9992 65.625 50.9988 65.625 50.9984 65.625C50.9981 65.625 50.9977 65.625 50.9973 65.625C50.997 65.625 50.9966 65.625 50.9963 65.625C50.9959 65.625 50.9955 65.625 50.9952 65.625C50.9948 65.625 50.9945 65.625 50.9941 65.625C50.9937 65.625 50.9934 65.625 50.993 65.625C50.9927 65.625 50.9923 65.625 50.9919 65.625C50.9916 65.625 50.9912 65.625 50.9909 65.625C50.9905 65.625 50.9901 65.625 50.9898 65.625C50.9894 65.625 50.9891 65.625 50.9887 65.625C50.9884 65.625 50.988 65.625 50.9876 65.625C50.9873 65.625 50.9869 65.625 50.9866 65.625C50.9862 65.625 50.9859 65.625 50.9855 65.625C50.9851 65.625 50.9848 65.625 50.9844 65.625C50.9841 65.625 50.9837 65.625 50.9834 65.625C50.983 65.625 50.9827 65.625 50.9823 65.625C50.982 65.625 50.9816 65.625 50.9813 65.625C50.9809 65.625 50.9806 65.625 50.9802 65.625C50.9798 65.625 50.9795 65.625 50.9791 65.625C50.9788 65.625 50.9784 65.625 50.9781 65.625C50.9777 65.625 50.9774 65.625 50.977 65.625C50.9767 65.625 50.9763 65.625 50.976 65.625C50.9756 65.625 50.9753 65.625 50.9749 65.625C50.9746 65.625 50.9742 65.625 50.9739 65.625C50.9735 65.625 50.9732 65.625 50.9728 65.625C50.9725 65.625 50.9722 65.625 50.9718 65.625C50.9715 65.625 50.9711 65.625 50.9708 65.625C50.9704 65.625 50.9701 65.625 50.9697 65.625C50.9694 65.625 50.969 65.625 50.9687 65.625C50.9683 65.625 50.968 65.625 50.9677 65.625C50.9673 65.625 50.967 65.625 50.9666 65.625C50.9663 65.625 50.9659 65.625 50.9656 65.625C50.9652 65.625 50.9649 65.625 50.9646 65.625C50.9642 65.625 50.9639 65.625 50.9635 65.625C50.9632 65.625 50.9629 65.625 50.9625 65.625C50.9622 65.625 50.9618 65.625 50.9615 65.625C50.9611 65.625 50.9608 65.625 50.9605 65.625C50.9601 65.625 50.9598 65.625 50.9594 65.625C50.9591 65.625 50.9588 65.625 50.9584 65.625C50.9581 65.625 50.9578 65.625 50.9574 65.625C50.9571 65.625 50.9567 65.625 50.9564 65.625C50.9561 65.625 50.9557 65.625 50.9554 65.625C50.9551 65.625 50.9547 65.625 50.9544 65.625C50.954 65.625 50.9537 65.625 50.9534 65.625C50.953 65.625 50.9527 65.625 50.9524 65.625C50.952 65.625 50.9517 65.625 50.9514 65.625C50.951 65.625 50.9507 65.625 50.9504 65.625C50.95 65.625 50.9497 65.625 50.9494 65.625C50.949 65.625 50.9487 65.625 50.9484 65.625C50.948 65.625 50.9477 65.625 50.9474 65.625C50.947 65.625 50.9467 65.625 50.9464 65.625C50.946 65.625 50.9457 65.625 50.9454 65.625C50.945 65.625 50.9447 65.625 50.9444 65.625C50.9441 65.625 50.9437 65.625 50.9434 65.625C50.9431 65.625 50.9427 65.625 50.9424 65.625C50.9421 65.625 50.9417 65.625 50.9414 65.625C50.9411 65.625 50.9408 65.625 50.9404 65.625C50.9401 65.625 50.9398 65.625 50.9395 65.625C50.9391 65.625 50.9388 65.625 50.9385 65.625C50.9382 65.625 50.9378 65.625 50.9375 65.625C50.9372 65.625 50.9368 65.625 50.9365 65.625C50.9362 65.625 50.9359 65.625 50.9356 65.625C50.9352 65.625 50.9349 65.625 50.9346 65.625C50.9343 65.625 50.9339 65.625 50.9336 65.625C50.9333 65.625 50.933 65.625 50.9326 65.625C50.9323 65.625 50.932 65.625 50.9317 65.625C50.9314 65.625 50.931 65.625 50.9307 65.625C50.9304 65.625 50.9301 65.625 50.9297 65.625C50.9294 65.625 50.9291 65.625 50.9288 65.625C50.9285 65.625 50.9281 65.625 50.9278 65.625C50.9275 65.625 50.9272 65.625 50.9269 65.625C50.9266 65.625 50.9262 65.625 50.9259 65.625C50.9256 65.625 50.9253 65.625 50.925 65.625C50.9246 65.625 50.9243 65.625 50.924 65.625C50.9237 65.625 50.9234 65.625 50.9231 65.625C50.9228 65.625 50.9224 65.625 50.9221 65.625C50.9218 65.625 50.9215 65.625 50.9212 65.625C50.9209 65.625 50.9205 65.625 50.9202 65.625C50.9199 65.625 50.9196 65.625 50.9193 65.625C50.919 65.625 50.9187 65.625 50.9184 65.625C50.918 65.625 50.9177 65.625 50.9174 65.625C50.9171 65.625 50.9168 65.625 50.9165 65.625C50.9162 65.625 50.9159 65.625 50.9155 65.625C50.9152 65.625 50.9149 65.625 50.9146 65.625C50.9143 65.625 50.914 65.625 50.9137 65.625C50.9134 65.625 50.9131 65.625 50.9128 65.625C50.9124 65.625 50.9121 65.625 50.9118 65.625C50.9115 65.625 50.9112 65.625 50.9109 65.625C50.9106 65.625 50.9103 65.625 50.91 65.625C50.9097 65.625 50.9094 65.625 50.9091 65.625C50.9088 65.625 50.9084 65.625 50.9081 65.625C50.9078 65.625 50.9075 65.625 50.9072 65.625C50.9069 65.625 50.9066 65.625 50.9063 65.625C50.906 65.625 50.9057 65.625 50.9054 65.625C50.9051 65.625 50.9048 65.625 50.9045 65.625C50.9042 65.625 50.9039 65.625 50.9036 65.625C50.9033 65.625 50.903 65.625 50.9027 65.625C50.9024 65.625 50.9021 65.625 50.9018 65.625C50.9015 65.625 50.9012 65.625 50.9009 65.625C50.9006 65.625 50.9003 65.625 50.9 65.625C50.8997 65.625 50.8994 65.625 50.8991 65.625C50.8988 65.625 50.8985 65.625 50.8982 65.625C50.8979 65.625 50.8976 65.625 50.8973 65.625C50.897 65.625 50.8967 65.625 50.8964 65.625C50.8961 65.625 50.8958 65.625 50.8955 65.625C50.8952 65.625 50.8949 65.625 50.8946 65.625C50.8943 65.625 50.894 65.625 50.8937 65.625C50.8934 65.625 50.8931 65.625 50.8928 65.625C50.8925 65.625 50.8922 65.625 50.8919 65.625C50.8916 65.625 50.8913 65.625 50.8911 65.625C50.8908 65.625 50.8905 65.625 50.8902 65.625C50.8899 65.625 50.8896 65.625 50.8893 65.625C50.889 65.625 50.8887 65.625 50.8884 65.625C50.8881 65.625 50.8878 65.625 50.8875 65.625C50.8873 65.625 50.887 65.625 50.8867 65.625C50.8864 65.625 50.8861 65.625 50.8858 65.625C50.8855 65.625 50.8852 65.625 50.8849 65.625C50.8846 65.625 50.8844 65.625 50.8841 65.625C50.8838 65.625 50.8835 65.625 50.8832 65.625C50.8829 65.625 50.8826 65.625 50.8823 65.625C50.8821 65.625 50.8818 65.625 50.8815 65.625C50.8812 65.625 50.8809 65.625 50.8806 65.625C50.8803 65.625 50.88 65.625 50.8798 65.625C50.8795 65.625 50.8792 65.625 50.8789 65.625C50.8786 65.625 50.8783 65.625 50.8781 65.625C50.8778 65.625 50.8775 65.625 50.8772 65.625C50.8769 65.625 50.8766 65.625 50.8764 65.625C50.8761 65.625 50.8758 65.625 50.8755 65.625C50.8752 65.625 50.8749 65.625 50.8747 65.625C50.8744 65.625 50.8741 65.625 50.8738 65.625C50.8735 65.625 50.8733 65.625 50.873 65.625C50.8727 65.625 50.8724 65.625 50.8721 65.625C50.8719 65.625 50.8716 65.625 50.8713 65.625C50.871 65.625 50.8707 65.625 50.8705 65.625C50.8702 65.625 50.8699 65.625 50.8696 65.625C50.8693 65.625 50.8691 65.625 50.8688 65.625C50.8685 65.625 50.8682 65.625 50.868 65.625C50.8677 65.625 50.8674 65.625 50.8671 65.625C50.8669 65.625 50.8666 65.625 50.8663 65.625C50.866 65.625 50.8658 65.625 50.8655 65.625C50.8652 65.625 50.8649 65.625 50.8647 65.625C50.8644 65.625 50.8641 65.625 50.8638 65.625C50.8636 65.625 50.8633 65.625 50.863 65.625C50.8627 65.625 50.8625 65.625 50.8622 65.625C50.8619 65.625 50.8617 65.625 50.8614 65.625C50.8611 65.625 50.8608 65.625 50.8606 65.625C50.8603 65.625 50.86 65.625 50.8598 65.625C50.8595 65.625 50.8592 65.625 50.8589 65.625C50.8587 65.625 50.8584 65.625 50.8581 65.625C50.8579 65.625 50.8576 65.625 50.8573 65.625C50.8571 65.625 50.8568 65.625 50.8565 65.625C50.8563 65.625 50.856 65.625 50.8557 65.625C50.8555 65.625 50.8552 65.625 50.8549 65.625C50.8547 65.625 50.8544 65.625 50.8541 65.625C50.8539 65.625 50.8536 65.625 50.8533 65.625C50.8531 65.625 50.8528 65.625 50.8525 65.625C50.8523 65.625 50.852 65.625 50.8517 65.625C50.8515 65.625 50.8512 65.625 50.851 65.625C50.8507 65.625 50.8504 65.625 50.8502 65.625C50.8499 65.625 50.8496 65.625 50.8494 65.625C50.8491 65.625 50.8489 65.625 50.8486 65.625C50.8483 65.625 50.8481 65.625 50.8478 65.625C50.8476 65.625 50.8473 65.625 50.847 65.625C50.8468 65.625 50.8465 65.625 50.8463 65.625C50.846 65.625 50.8457 65.625 50.8455 65.625C50.8452 65.625 50.845 65.625 50.8447 65.625C50.8444 65.625 50.8442 65.625 50.8439 65.625C50.8437 65.625 50.8434 65.625 50.8432 65.625C50.8429 65.625 50.8426 65.625 50.8424 65.625C50.8421 65.625 50.8419 65.625 50.8416 65.625C50.8414 65.625 50.8411 65.625 50.8409 65.625C50.8406 65.625 50.8403 65.625 50.8401 65.625C50.8398 65.625 50.8396 65.625 50.8393 65.625C50.8391 65.625 50.8388 65.625 50.8386 65.625C50.8383 65.625 50.8381 65.625 50.8378 65.625C50.8376 65.625 50.8373 65.625 50.8371 65.625C50.8368 65.625 50.8365 65.625 50.8363 65.625C50.836 65.625 50.8358 65.625 50.8355 65.625C50.8353 65.625 50.835 65.625 50.8348 65.625C50.8345 65.625 50.8343 65.625 50.834 65.625C50.8338 65.625 50.8335 65.625 50.8333 65.625C50.8331 65.625 50.8328 65.625 50.8326 65.625C50.8323 65.625 50.8321 65.625 50.8318 65.625C50.8316 65.625 50.8313 65.625 50.8311 65.625C50.8308 65.625 50.8306 65.625 50.8303 65.625C50.8301 65.625 50.8298 65.625 50.8296 65.625C50.8293 65.625 50.8291 65.625 50.8289 65.625C50.8286 65.625 50.8284 65.625 50.8281 65.625C50.8279 65.625 50.8276 65.625 50.8274 65.625C50.8272 65.625 50.8269 65.625 50.8267 65.625C50.8264 65.625 50.8262 65.625 50.8259 65.625C50.8257 65.625 50.8255 65.625 50.8252 65.625C50.825 65.625 50.8247 65.625 50.8245 65.625C50.8242 65.625 50.824 65.625 50.8238 65.625C50.8235 65.625 50.8233 65.625 50.823 65.625C50.8228 65.625 50.8226 65.625 50.8223 65.625C50.8221 65.625 50.8218 65.625 50.8216 65.625C50.8214 65.625 50.8211 65.625 50.8209 65.625C50.8207 65.625 50.8204 65.625 50.8202 65.625C50.8199 65.625 50.8197 65.625 50.8195 65.625C50.8192 65.625 50.819 65.625 50.8188 65.625C50.8185 65.625 50.8183 65.625 50.8181 65.625C50.8178 65.625 50.8176 65.625 50.8174 65.625C50.8171 65.625 50.8169 65.625 50.8167 65.625C50.8164 65.625 50.8162 65.625 50.8159 65.625C50.8157 65.625 50.8155 65.625 50.8153 65.625C50.815 65.625 50.8148 65.625 50.8146 65.625C50.8143 65.625 50.8141 65.625 50.8139 65.625C50.8136 65.625 50.8134 65.625 50.8132 65.625C50.8129 65.625 50.8127 65.625 50.8125 65.625C50.8122 65.625 50.812 65.625 50.8118 65.625C50.8116 65.625 50.8113 65.625 50.8111 65.625C50.8109 65.625 50.8106 65.625 50.8104 65.625C50.8102 65.625 50.81 65.625 50.8097 65.625C50.8095 65.625 50.8093 65.625 50.809 65.625C50.8088 65.625 50.8086 65.625 50.8084 65.625C50.8081 65.625 50.8079 65.625 50.8077 65.625C50.8075 65.625 50.8072 65.625 50.807 65.625C50.8068 65.625 50.8066 65.625 50.8063 65.625C50.8061 65.625 50.8059 65.625 50.8057 65.625C50.8054 65.625 50.8052 65.625 50.805 65.625C50.8048 65.625 50.8045 65.625 50.8043 65.625C50.8041 65.625 50.8039 65.625 50.8037 65.625C50.8034 65.625 50.8032 65.625 50.803 65.625C50.8028 65.625 50.8026 65.625 50.8023 65.625C50.8021 65.625 50.8019 65.625 50.8017 65.625C50.8015 65.625 50.8012 65.625 50.801 65.625C50.8008 65.625 50.8006 65.625 50.8004 65.625C50.8001 65.625 50.7999 65.625 50.7997 65.625C50.7995 65.625 50.7993 65.625 50.799 65.625C50.7988 65.625 50.7986 65.625 50.7984 65.625C50.7982 65.625 50.798 65.625 50.7977 65.625C50.7975 65.625 50.7973 65.625 50.7971 65.625C50.7969 65.625 50.7967 65.625 50.7965 65.625C50.7962 65.625 50.796 65.625 50.7958 65.625C50.7956 65.625 50.7954 65.625 50.7952 65.625C50.795 65.625 50.7947 65.625 50.7945 65.625C50.7943 65.625 50.7941 65.625 50.7939 65.625C50.7937 65.625 50.7935 65.625 50.7933 65.625C50.793 65.625 50.7928 65.625 50.7926 65.625C50.7924 65.625 50.7922 65.625 50.792 65.625C50.7918 65.625 50.7916 65.625 50.7914 65.625C50.7911 65.625 50.7909 65.625 50.7907 65.625C50.7905 65.625 50.7903 65.625 50.7901 65.625C50.7899 65.625 50.7897 65.625 50.7895 65.625C50.7893 65.625 50.7891 65.625 50.7889 65.625C50.7886 65.625 50.7884 65.625 50.7882 65.625C50.788 65.625 50.7878 65.625 50.7876 65.625C50.7874 65.625 50.7872 65.625 50.787 65.625C50.7868 65.625 50.7866 65.625 50.7864 65.625C50.7862 65.625 50.786 65.625 50.7858 65.625C50.7856 65.625 50.7854 65.625 50.7852 65.625C50.785 65.625 50.7847 65.625 50.7845 65.625C50.7843 65.625 50.7841 65.625 50.7839 65.625C50.7837 65.625 50.7835 65.625 50.7833 65.625C50.7831 65.625 50.7829 65.625 50.7827 65.625C50.7825 65.625 50.7823 65.625 50.7821 65.625C50.7819 65.625 50.7817 65.625 50.7815 65.625C50.7813 65.625 50.7811 65.625 50.7809 65.625C50.7807 65.625 50.7805 65.625 50.7803 65.625C50.7801 65.625 50.7799 65.625 50.7797 65.625C50.7795 65.625 50.7793 65.625 50.7791 65.625C50.779 65.625 50.7788 65.625 50.7786 65.625C50.7784 65.625 50.7782 65.625 50.778 65.625C50.7778 65.625 50.7776 65.625 50.7774 65.625C50.7772 65.625 50.777 65.625 50.7768 65.625C50.7766 65.625 50.7764 65.625 50.7762 65.625C50.776 65.625 50.7758 65.625 50.7756 65.625C50.7754 65.625 50.7752 65.625 50.7751 65.625C50.7749 65.625 50.7747 65.625 50.7745 65.625C50.7743 65.625 50.7741 65.625 50.7739 65.625C50.7737 65.625 50.7735 65.625 50.7733 65.625C50.7731 65.625 50.7729 65.625 50.7728 65.625C50.7726 65.625 50.7724 65.625 50.7722 65.625C50.772 65.625 50.7718 65.625 50.7716 65.625C50.7714 65.625 50.7712 65.625 50.7711 65.625C50.7709 65.625 50.7707 65.625 50.7705 65.625C50.7703 65.625 50.7701 65.625 50.7699 65.625C50.7697 65.625 50.7696 65.625 50.7694 65.625C50.7692 65.625 50.769 65.625 50.7688 65.625C50.7686 65.625 50.7684 65.625 50.7683 65.625C50.7681 65.625 50.7679 65.625 50.7677 65.625C50.7675 65.625 50.7673 65.625 50.7672 65.625C50.767 65.625 50.7668 65.625 50.7666 65.625C50.7664 65.625 50.7662 65.625 50.7661 65.625C50.7659 65.625 50.7657 65.625 50.7655 65.625C50.7653 65.625 50.7651 65.625 50.765 65.625C50.7648 65.625 50.7646 65.625 50.7644 65.625C50.7642 65.625 50.7641 65.625 50.7639 65.625C50.7637 65.625 50.7635 65.625 50.7633 65.625C50.7632 65.625 50.763 65.625 50.7628 65.625C50.7626 65.625 50.7624 65.625 50.7623 65.625C50.7621 65.625 50.7619 65.625 50.7617 65.625C50.7616 65.625 50.7614 65.625 50.7612 65.625C50.761 65.625 50.7609 65.625 50.7607 65.625C50.7605 65.625 50.7603 65.625 50.7601 65.625C50.76 65.625 50.7598 65.625 50.7596 65.625C50.7594 65.625 50.7593 65.625 50.7591 65.625C50.7589 65.625 50.7587 65.625 50.7586 65.625C50.7584 65.625 50.7582 65.625 50.7581 65.625C50.7579 65.625 50.7577 65.625 50.7575 65.625C50.7574 65.625 50.7572 65.625 50.757 65.625C50.7569 65.625 50.7567 65.625 50.7565 65.625C50.7563 65.625 50.7562 65.625 50.756 65.625C50.7558 65.625 50.7557 65.625 50.7555 65.625C50.7553 65.625 50.7551 65.625 50.755 65.625C50.7548 65.625 50.7546 65.625 50.7545 65.625C50.7543 65.625 50.7541 65.625 50.754 65.625C50.7538 65.625 50.7536 65.625 50.7535 65.625C50.7533 65.625 50.7531 65.625 50.753 65.625C50.7528 65.625 50.7526 65.625 50.7525 65.625C50.7523 65.625 50.7521 65.625 50.752 65.625C50.7518 65.625 50.7516 65.625 50.7515 65.625C50.7513 65.625 50.7511 65.625 50.751 65.625C50.7508 65.625 50.7507 65.625 50.7505 65.625C50.7503 65.625 50.7502 65.625 50.75 65.625V66.625ZM51.25 66.625L51.4925 67.5951C51.8806 67.4981 52.2997 67.3572 52.7464 67.1785L52.375 66.25L52.0036 65.3215C51.617 65.4762 51.2861 65.5852 51.0075 65.6549L51.25 66.625ZM52.375 66.25L52.6912 67.1987C53.1775 67.0366 53.8334 66.8315 54.6623 66.5828L54.375 65.625L54.0877 64.6672C53.25 64.9185 52.5725 65.1301 52.0588 65.3013L52.375 66.25ZM54.375 65.625L54.7113 66.5667C55.8461 66.1615 56.7415 65.9258 57.4152 65.8347C58.1246 65.7389 58.4283 65.8264 58.5144 65.8742L59 65L59.4856 64.1258C58.8217 63.757 57.9796 63.7403 57.1473 63.8528C56.2793 63.9701 55.2372 64.2552 54.0387 64.6833L54.375 65.625ZM59 65L58.5528 65.8944C58.6254 65.9307 58.7177 65.9913 58.7616 66.2771C58.8132 66.6121 58.7717 67.1589 58.5385 67.9753L59.5 68.25L60.4615 68.5247C60.7283 67.5911 60.8535 66.7213 60.7384 65.9729C60.6157 65.1754 60.2079 64.4859 59.4472 64.1056L59 65ZM59.5 68.25L58.5643 67.8972C57.6101 70.428 56.775 72.4785 56.0584 74.0549C55.3337 75.6493 54.7559 76.7005 54.325 77.275L55.125 77.875L55.925 78.475C56.4941 77.7161 57.1455 76.4966 57.8791 74.8826C58.6209 73.2507 59.4733 71.1554 60.4357 68.6028L59.5 68.25ZM55.125 77.875L54.4179 77.1679C53.9693 77.6165 53.6147 78.1939 53.3309 78.8561L54.25 79.25L55.1691 79.6439C55.3853 79.1394 55.614 78.8002 55.8321 78.5821L55.125 77.875ZM54.25 79.25L53.3013 78.9338C53.1245 79.4642 52.9875 79.9633 52.8944 80.4289L53.875 80.625L54.8556 80.8211C54.9291 80.4534 55.0422 80.0358 55.1987 79.5662L54.25 79.25ZM53.875 80.625H52.875C52.875 81.0293 52.9648 81.7879 53.6778 82.1444L54.125 81.25L54.5722 80.3556C54.6535 80.3962 54.7221 80.4517 54.7749 80.5133C54.8258 80.5727 54.8528 80.6269 54.866 80.6599C54.8887 80.7166 54.875 80.7205 54.875 80.625H53.875ZM54.125 81.25V82.25C54.1009 82.25 54.1561 82.2522 54.3797 82.2758C54.5716 82.296 54.8429 82.3267 55.1957 82.3682C55.9003 82.4511 56.9183 82.5757 58.251 82.7423L58.375 81.75L58.499 80.7577C57.165 80.591 56.1413 80.4656 55.4293 80.3818C55.0737 80.34 54.793 80.3082 54.5891 80.2867C54.4168 80.2686 54.2325 80.25 54.125 80.25V81.25ZM58.375 81.75L58.2411 82.741C59.7588 82.9461 60.9957 83.1789 61.9623 83.4353C62.9446 83.6959 63.5808 83.9641 63.9453 84.2071L64.5 83.375L65.0547 82.5429C64.4192 82.1193 63.5345 81.7832 62.4752 81.5022C61.4001 81.217 60.0745 80.9706 58.5089 80.759L58.375 81.75ZM64.5 83.375L63.9759 84.2267C64.3709 84.4698 64.5877 84.7354 64.7019 85.0096C64.8185 85.2893 64.8653 85.6672 64.7671 86.1907L65.75 86.375L66.7329 86.5593C66.8847 85.7495 66.8482 84.9607 66.5481 84.2404C66.2457 83.5146 65.7124 82.9469 65.0241 82.5233L64.5 83.375ZM65.75 86.375L64.7661 86.1961C64.6462 86.8559 64.3362 87.324 63.8203 87.6679L64.375 88.5L64.9297 89.3321C65.9138 88.676 66.5205 87.7274 66.7339 86.5539L65.75 86.375ZM64.375 88.5L63.775 87.7C63.3276 88.0355 62.7886 88.1926 62.0905 88.1291L62 89.125L61.9095 90.1209C63.0448 90.2241 64.089 89.9645 64.975 89.3L64.375 88.5ZM62 89.125V88.125C61.639 88.125 61.3706 88.1148 61.1843 88.0979C61.0911 88.0894 61.0325 88.0804 61.0008 88.0741C60.9575 88.0654 60.9977 88.0683 61.0722 88.1056L60.625 89L60.1778 89.8944C60.4489 90.03 60.7803 90.0694 61.0032 90.0896C61.2752 90.1144 61.611 90.125 62 90.125V89.125ZM60.625 89L61.3321 88.2929C61.3894 88.3502 61.4077 88.3918 61.4022 88.3809C61.3983 88.3731 61.3839 88.3413 61.3641 88.2752C61.3237 88.1407 61.2803 87.9303 61.2423 87.626L60.25 87.75L59.2577 87.874C59.303 88.2363 59.3638 88.5676 59.4484 88.8498C59.5246 89.1037 59.6557 89.4449 59.9179 89.7071L60.625 89ZM60.25 87.75L61.2423 87.626C61.1973 87.2658 61.1352 86.9309 61.0424 86.6525C60.9959 86.513 60.9311 86.355 60.8358 86.2053C60.7439 86.0608 60.5838 85.8614 60.3222 85.7306L59.875 86.625L59.4278 87.5194C59.2495 87.4303 59.1675 87.309 59.1485 87.2791C59.1262 87.2439 59.1291 87.237 59.1451 87.285C59.1773 87.3816 59.2194 87.5675 59.2577 87.874L60.25 87.75ZM59.875 86.625L60.5821 85.9179C60.2889 85.6247 59.8801 85.5017 59.6175 85.4361C59.3007 85.3569 58.9136 85.2989 58.4745 85.255L58.375 86.25L58.2755 87.245C58.6697 87.2845 58.9493 87.3306 59.1325 87.3764C59.2237 87.3992 59.2707 87.417 59.2867 87.424C59.3112 87.4347 59.2489 87.4131 59.1679 87.3321L59.875 86.625ZM58.375 86.25L58.5919 85.2738C57.6971 85.075 56.1556 85.043 54.085 85.1258L54.125 86.125L54.165 87.1242C56.2611 87.0404 57.5529 87.0917 58.1581 87.2262L58.375 86.25ZM54.125 86.125V85.125C53.1095 85.125 52.2689 85.1565 51.6159 85.2241C51.2895 85.2578 50.993 85.3023 50.7361 85.3615C50.4929 85.4177 50.2214 85.501 49.9855 85.6425L50.5 86.5L51.0145 87.3575C50.987 87.374 51.0227 87.348 51.1858 87.3103C51.3351 87.2759 51.5439 87.2422 51.8216 87.2134C52.3769 87.156 53.1405 87.125 54.125 87.125V86.125ZM50.5 86.5L50.7425 85.5299C50.0431 85.355 49.6521 84.9921 49.4398 84.4083L48.5 84.75L47.5602 85.0917C48.0146 86.3413 48.9569 87.145 50.2575 87.4701L50.5 86.5ZM48.5 84.75L49.4487 84.4338C49.238 83.8017 49.3207 82.8925 50.0088 81.5929L49.125 81.125L48.2412 80.6571C47.4293 82.1908 47.0953 83.6983 47.5513 85.0662L48.5 84.75ZM49.125 81.125H50.125C50.125 81.2215 50.1103 81.2944 50.1055 81.3178C50.0988 81.3499 50.0921 81.3735 50.0889 81.3841C50.0826 81.4052 50.0785 81.4153 50.0815 81.4074C50.0867 81.3935 50.1002 81.3604 50.1263 81.3012C50.1771 81.1856 50.2577 81.0119 50.3709 80.7752C50.5962 80.3041 50.9368 79.6125 51.3944 78.6972L50.5 78.25L49.6056 77.8028C49.1465 78.7208 48.7997 79.425 48.5666 79.9123C48.4507 80.1548 48.3593 80.3509 48.2956 80.4957C48.2644 80.5667 48.2349 80.6364 48.2115 80.6981C48.2002 80.728 48.1853 80.7689 48.1718 80.8142C48.1686 80.825 48.125 80.959 48.125 81.125H49.125ZM50.5 78.25L51.3779 78.7289C52.3907 76.872 53.2395 75.1331 53.9216 73.5131L53 73.125L52.0784 72.7369C51.4272 74.2835 50.6093 75.9613 49.6221 77.7711L50.5 78.25ZM53 73.125L53.9285 73.4964C54.2663 72.6519 54.5009 71.9158 54.5575 71.3495C54.5842 71.0828 54.5904 70.6948 54.4101 70.334C54.3095 70.133 54.1495 69.9388 53.9172 69.8021C53.6891 69.6679 53.4522 69.625 53.25 69.625V70.625V71.625C53.1728 71.625 53.0427 71.6081 52.9031 71.526C52.7594 71.4414 52.6696 71.3253 52.6212 71.2285C52.545 71.076 52.5825 71.0005 52.5675 71.1505C52.5408 71.4176 52.4004 71.9315 52.0715 72.7536L53 73.125ZM53.25 70.625V69.625C52.9625 69.625 52.5271 69.702 52.046 69.8023C51.5274 69.9103 50.8463 70.0702 50.0075 70.2799L50.25 71.25L50.4925 72.2201C51.3204 72.0132 51.9726 71.8605 52.454 71.7602C52.6949 71.71 52.8854 71.6746 53.0294 71.6521C53.1011 71.6409 53.1564 71.6336 53.1974 71.6294C53.2408 71.6249 53.2556 71.625 53.25 71.625V70.625ZM50.25 71.25L49.9804 70.287C47.9135 70.8658 46.5561 71.0164 45.7894 70.8886L45.625 71.875L45.4606 72.8614C46.6939 73.0669 48.4198 72.8009 50.5196 72.213L50.25 71.25ZM45.625 71.875L45.7894 70.8886C45.1279 70.7784 44.769 70.4697 44.5648 69.9083L43.625 70.25L42.6852 70.5917C43.1477 71.8636 44.1221 72.6383 45.4606 72.8614L45.625 71.875ZM43.625 70.25L44.4571 69.6953C44.4854 69.7379 44.4308 69.7142 44.4785 69.4873C44.5286 69.2494 44.6731 68.8923 44.9767 68.3991L44.125 67.875L43.2733 67.3509C42.9102 67.941 42.6381 68.5214 42.5215 69.0752C42.4026 69.64 42.4312 70.2621 42.7929 70.8047L43.625 70.25ZM44.125 67.875L44.9767 68.3991C45.6172 67.3583 46.4253 66.2254 47.4059 64.9997L46.625 64.375L45.8441 63.7503C44.8247 65.0246 43.9662 66.2251 43.2733 67.3509L44.125 67.875ZM46.625 64.375L47.425 64.975C47.928 64.3043 48.3311 63.7529 48.6317 63.3235C48.9193 62.9127 49.1485 62.5641 49.2694 62.3222L48.375 61.875L47.4806 61.4278C47.4349 61.5192 47.2891 61.754 46.9933 62.1765C46.7105 62.5804 46.322 63.1123 45.825 63.775L46.625 64.375ZM48.375 61.875L49.2267 62.3991C49.5544 61.8665 49.8038 61.4952 49.9801 61.266C50.0707 61.1482 50.1202 61.0968 50.1336 61.0844C50.1406 61.0778 50.1148 61.1037 50.0595 61.1363C50.0173 61.1613 49.8599 61.25 49.625 61.25V60.25V59.25C49.3485 59.25 49.1416 59.3557 49.0421 59.4145C48.9295 59.481 48.8385 59.5576 48.7727 59.6188C48.6402 59.7417 48.5126 59.8935 48.3949 60.0465C48.1546 60.359 47.8622 60.8002 47.5233 61.3509L48.375 61.875ZM49.625 60.25L50.442 60.8267C51.9678 58.6651 53.0225 56.7566 53.5463 55.1168C54.0671 53.4867 54.1123 51.9547 53.3503 50.7236L52.5 51.25L51.6497 51.7764C51.971 52.2953 52.0788 53.1383 51.6412 54.5082C51.2067 55.8684 50.2822 57.5849 48.808 59.6733L49.625 60.25ZM52.5 51.25L53.3654 50.749C52.9739 50.0726 52.8467 49.5283 52.8732 49.0917C52.8987 48.6706 53.0729 48.2469 53.4828 47.8055L52.75 47.125L52.0172 46.4445C51.3438 47.1698 50.9346 48.0169 50.8768 48.9708C50.82 49.9092 51.1095 50.844 51.6346 51.751L52.5 51.25ZM52.75 47.125L53.4811 47.8073C53.9527 47.302 54.2473 47.2599 54.3935 47.2756C54.5801 47.2956 54.9446 47.4504 55.4606 48.1139L56.25 47.5L57.0394 46.8861C56.3888 46.0496 55.5866 45.3919 54.6065 45.2869C53.586 45.1776 52.714 45.698 52.0189 46.4427L52.75 47.125ZM56.25 47.5L55.4716 48.1278C57.1409 50.1977 57.0483 53.5382 54.2482 58.6442L55.125 59.125L56.0018 59.6058C58.8684 54.3785 59.5258 49.969 57.0284 46.8722L56.25 47.5ZM55.125 59.125L54.217 58.7059C53.7556 59.7057 53.048 60.8526 52.075 62.15L52.875 62.75L53.675 63.35C54.702 61.9807 55.4944 60.7109 56.033 59.5441L55.125 59.125ZM52.875 62.75L52.075 62.15C51.0547 63.5104 50.267 64.73 49.7306 65.8028L50.625 66.25L51.5194 66.6972C51.983 65.77 52.6953 64.6562 53.675 63.35L52.875 62.75ZM105.5 60.125L105.641 59.1351C105.096 59.0571 103.837 58.8145 101.829 58.396L101.625 59.375L101.421 60.354C103.413 60.7689 104.738 61.0262 105.359 61.1149L105.5 60.125ZM101.625 59.375L101.877 58.4074C99.9614 57.9075 98.5492 57.5337 97.6381 57.2852L97.375 58.25L97.1119 59.2148C98.0342 59.4663 99.4553 59.8425 101.373 60.3426L101.625 59.375ZM97.375 58.25L97.292 57.2535C96.8917 57.2868 96.6779 57.2337 96.5791 57.1876C96.5122 57.1563 96.4727 57.121 96.4363 57.0239L95.5 57.375L94.5637 57.7261C94.7773 58.2957 95.1753 58.7395 95.7334 58.9999C96.2596 59.2455 96.8583 59.2965 97.458 59.2465L97.375 58.25ZM95.5 57.375L96.4363 57.0239C96.2757 56.5956 96.2626 56.1244 96.4487 55.5662L95.5 55.25L94.5513 54.9338C94.2374 55.8756 94.2243 56.8211 94.5637 57.7261L95.5 57.375ZM95.5 55.25L96.4138 55.6561C96.7155 54.9774 97.029 54.5102 97.3321 54.2071L96.625 53.5L95.9179 52.7929C95.3876 53.3232 94.9512 54.0226 94.5862 54.8439L95.5 55.25ZM96.625 53.5L97.2835 54.2526C97.2835 54.2526 97.2853 54.251 97.2897 54.2482C97.2943 54.2454 97.3024 54.2408 97.3151 54.2353C97.341 54.224 97.3858 54.2088 97.4565 54.1968C97.6026 54.172 97.8262 54.1663 98.1473 54.2097C98.7945 54.2972 99.6928 54.5629 100.868 55.049L101.25 54.125L101.632 53.201C100.391 52.6871 99.3097 52.3486 98.4152 52.2278C97.5623 52.1125 96.6349 52.1626 95.9665 52.7474L96.625 53.5ZM101.25 54.125L100.895 55.06C102.111 55.5212 103.101 55.8727 103.856 56.1102C104.234 56.2289 104.564 56.3227 104.842 56.3878C105.103 56.4487 105.38 56.5 105.625 56.5V55.5V54.5C105.632 54.5 105.61 54.5002 105.546 54.4903C105.485 54.4809 105.404 54.4651 105.298 54.4404C105.087 54.3909 104.808 54.3128 104.456 54.2023C103.754 53.9815 102.805 53.6455 101.605 53.19L101.25 54.125ZM105.625 55.5L105.365 56.4656C107.522 57.0463 108.873 57.5941 109.552 58.0692L110.125 57.25L110.698 56.4308C109.711 55.7392 108.061 55.1204 105.885 54.5344L105.625 55.5ZM110.125 57.25L109.588 58.0937C110.13 58.4384 110.5 59.0582 110.5 60.25H111.5H112.5C112.5 58.6085 111.954 57.2283 110.662 56.4063L110.125 57.25ZM111.5 60.25H110.5C110.5 61.3071 109.95 62.947 108.632 65.2539L109.5 65.75L110.368 66.2461C111.717 63.8863 112.5 61.8596 112.5 60.25H111.5ZM109.5 65.75L108.61 65.2937C106.969 68.4949 105.124 71.4452 103.078 74.1461L103.875 74.75L104.672 75.3539C106.793 72.5548 108.698 69.5051 110.39 66.2063L109.5 65.75ZM103.875 74.75L103.064 74.1645C102.521 74.9164 102.12 75.5173 101.897 75.9384C101.84 76.0471 101.785 76.1606 101.741 76.2732C101.703 76.3721 101.648 76.5341 101.635 76.7225C101.624 76.8853 101.632 77.357 102.067 77.6755C102.459 77.9631 102.874 77.8749 102.993 77.8451L102.75 76.875L102.507 75.9049C102.543 75.8959 102.897 75.8039 103.25 76.0627C103.645 76.3526 103.636 76.771 103.631 76.8556C103.623 76.9659 103.595 77.025 103.606 76.9963C103.612 76.9813 103.629 76.9424 103.665 76.8741C103.817 76.5868 104.145 76.0836 104.686 75.3355L103.875 74.75ZM102.75 76.875L102.946 77.8556C103.223 77.8002 103.495 77.6584 103.704 77.5373C103.94 77.4005 104.214 77.219 104.519 77.0012C105.13 76.5646 105.922 75.9434 106.887 75.146L106.25 74.375L105.613 73.604C104.662 74.3899 103.912 74.977 103.356 75.3738C103.078 75.5727 102.862 75.7141 102.702 75.8064C102.515 75.9145 102.485 75.9081 102.554 75.8944L102.75 76.875ZM106.25 74.375L106.928 75.1098C107.913 74.2008 108.723 73.875 109.375 73.875V72.875V71.875C108.027 71.875 106.754 72.5492 105.572 73.6402L106.25 74.375ZM109.375 72.875L109.458 73.8715C109.763 73.8462 109.947 73.9109 110.08 74.0045C110.226 74.1077 110.406 74.3157 110.567 74.734L111.5 74.375L112.433 74.016C112.178 73.351 111.795 72.7673 111.233 72.3705C110.657 71.9641 109.987 71.8205 109.292 71.8785L109.375 72.875ZM111.5 74.375L110.564 74.0239C110.359 74.5704 110.001 75.1909 109.461 75.8861L110.25 76.5L111.039 77.1139C111.665 76.3091 112.141 75.5129 112.436 74.7261L111.5 74.375ZM110.25 76.5L109.497 75.8415C108.96 76.4552 108.254 77.1252 107.367 77.851L108 78.625L108.633 79.399C109.579 78.6248 110.373 77.8781 111.003 77.1585L110.25 76.5ZM108 78.625L107.412 77.8163C106.492 78.4849 105.697 79.0712 105.025 79.575L105.625 80.375L106.225 81.175C106.887 80.6788 107.674 80.0985 108.588 79.4337L108 78.625ZM105.625 80.375L105.095 79.527C104.423 79.947 103.502 80.533 102.334 81.2838L102.875 82.125L103.416 82.9662C104.581 82.217 105.494 81.6363 106.155 81.223L105.625 80.375ZM102.875 82.125L102.334 81.2838C101.175 82.0291 100.393 82.5492 100.025 82.825L100.625 83.625L101.225 84.425C101.524 84.2008 102.242 83.7209 103.416 82.9662L102.875 82.125ZM100.625 83.625L100.178 82.7306C99.1774 83.2308 98.3774 83.7084 97.9179 84.1679L98.625 84.875L99.3321 85.5821C99.5393 85.3749 100.073 85.0192 101.072 84.5194L100.625 83.625ZM98.625 84.875L97.825 84.275C97.5016 84.7062 97.086 85.5108 96.592 86.5809L97.5 87L98.408 87.4191C98.914 86.3226 99.2484 85.7104 99.425 85.475L98.625 84.875ZM97.5 87L96.6362 86.4961C95.9695 87.639 95.561 88.9858 95.3818 90.5082L96.375 90.625L97.3682 90.7418C97.5224 89.4309 97.8638 88.361 98.3638 87.5039L97.5 87ZM96.375 90.625L95.3767 90.5663C95.2914 92.0175 95.2905 93.3534 95.3775 94.5712L96.375 94.5L97.3725 94.4288C97.2928 93.3133 97.292 92.0659 97.3733 90.6837L96.375 90.625ZM96.375 94.5L95.3775 94.5712C95.4614 95.7452 95.5869 97.2926 95.7538 99.2116L96.75 99.125L97.7462 99.0384C97.5798 97.124 97.4553 95.5881 97.3725 94.4288L96.375 94.5ZM96.75 99.125L95.7584 99.2543C96.0085 101.171 96.174 102.496 96.2561 103.235L97.25 103.125L98.2439 103.015C98.1594 102.254 97.9915 100.912 97.7416 98.9957L96.75 99.125ZM97.25 103.125L96.2505 103.155C96.2935 104.576 96.445 105.799 96.7243 106.8C97.0012 107.792 97.4265 108.648 98.0773 109.24L98.75 108.5L99.4227 107.76C99.1568 107.518 98.8738 107.062 98.6507 106.262C98.43 105.472 98.2898 104.424 98.2495 103.095L97.25 103.125ZM98.75 108.5L98.1168 109.274C98.7228 109.77 99.5964 110.16 100.639 110.486C101.701 110.817 103.022 111.108 104.59 111.362L104.75 110.375L104.91 109.388C103.395 109.142 102.174 108.87 101.236 108.577C100.279 108.278 99.6938 107.98 99.3832 107.726L98.75 108.5ZM104.75 110.375L104.685 111.373C108.559 111.626 114.883 111.708 123.635 111.625L123.625 110.625L123.615 109.625C114.867 109.708 108.608 109.624 104.815 109.377L104.75 110.375ZM123.625 110.625L123.644 111.625C128.023 111.541 131.462 111.437 133.957 111.311C135.203 111.248 136.222 111.18 137.009 111.105C137.771 111.032 138.384 110.948 138.775 110.837L138.5 109.875L138.225 108.913C138.033 108.969 137.589 109.041 136.819 109.114C136.075 109.185 135.088 109.252 133.856 109.314C131.392 109.438 127.977 109.542 123.606 109.625L123.625 110.625ZM138.5 109.875L138.787 110.833C139.689 110.562 140.535 110.135 140.982 109.389L140.125 108.875L139.268 108.361C139.215 108.449 138.978 108.688 138.213 108.917L138.5 109.875ZM140.125 108.875L140.973 109.405C141.143 109.132 141.202 108.823 141.229 108.6C141.259 108.351 141.266 108.066 141.257 107.761C141.24 107.148 141.159 106.353 141.021 105.39C140.745 103.458 140.229 100.754 139.477 97.2881L138.5 97.5L137.523 97.7119C138.271 101.163 138.776 103.812 139.041 105.673C139.175 106.606 139.244 107.315 139.258 107.817C139.265 108.069 139.258 108.244 139.244 108.357C139.227 108.496 139.211 108.451 139.277 108.345L140.125 108.875ZM138.5 97.5L139.476 97.2831C138.469 92.7509 137.943 90.2322 137.867 89.626L136.875 89.75L135.883 89.874C135.974 90.6011 136.531 93.2491 137.524 97.7169L138.5 97.5ZM136.875 89.75L137.867 89.626C137.836 89.3726 137.854 89.2319 137.871 89.1694C137.884 89.1232 137.886 89.1482 137.85 89.175L137.25 88.375L136.65 87.575C135.883 88.1505 135.784 89.0816 135.883 89.874L136.875 89.75ZM137.25 88.375L137.85 89.175C137.922 89.1212 137.96 89.1122 137.965 89.111C137.967 89.1108 137.973 89.1079 137.999 89.1156C138.076 89.1381 138.283 89.2445 138.601 89.6332L139.375 89L140.149 88.3668C139.717 87.8388 139.195 87.3827 138.563 87.1969C137.864 86.9913 137.199 87.1636 136.65 87.575L137.25 88.375ZM139.375 89L138.635 89.6727C139.454 90.5731 139.723 91.1295 139.76 91.3914L140.75 91.25L141.74 91.1086C141.611 90.2039 140.963 89.2603 140.115 88.3273L139.375 89ZM140.75 91.25L139.811 91.5943C140.704 94.029 142.066 99.0956 143.902 106.855L144.875 106.625L145.848 106.395C144.017 98.6544 142.629 93.471 141.689 90.9057L140.75 91.25ZM144.875 106.625L143.881 106.735C144.029 108.063 143.848 109.495 143.306 111.045L144.25 111.375L145.194 111.705C145.818 109.921 146.055 108.187 145.869 106.515L144.875 106.625ZM144.25 111.375L143.292 111.088C142.853 112.55 142.17 113.195 141.367 113.409L141.625 114.375L141.883 115.341C143.58 114.889 144.647 113.533 145.208 111.662L144.25 111.375ZM141.625 114.375L141.178 113.481C140.519 113.81 139.507 114.047 138.07 114.127L138.125 115.125L138.18 116.123C139.743 116.037 141.065 115.773 142.072 115.269L141.625 114.375ZM138.125 115.125L138.07 114.127C136.605 114.208 131.89 114.25 123.875 114.25V115.25V116.25C131.86 116.25 136.645 116.209 138.18 116.123L138.125 115.125ZM123.875 115.25L123.859 114.25C113.434 114.417 106.563 114.374 103.198 114.128L103.125 115.125L103.052 116.122C106.521 116.376 113.482 116.416 123.891 116.25L123.875 115.25ZM103.125 115.125L103.2 114.128C99.9415 113.883 97.3182 113.276 95.2941 112.342L94.875 113.25L94.4559 114.158C96.7651 115.224 99.6419 115.867 103.05 116.122L103.125 115.125ZM94.875 113.25L95.2888 112.34C95.3627 112.373 95.2759 112.365 95.1011 112.037C94.9413 111.738 94.7666 111.282 94.5887 110.639C94.2341 109.359 93.9078 107.491 93.6183 105.009L92.625 105.125L91.6317 105.241C91.9255 107.759 92.2659 109.745 92.6613 111.173C92.8584 111.885 93.0795 112.497 93.3364 112.978C93.5783 113.432 93.929 113.918 94.4612 114.16L94.875 113.25ZM92.625 105.125L93.6183 105.009C93.3263 102.507 93.0855 100.59 92.8962 99.2648C92.8017 98.6036 92.7186 98.0787 92.6468 97.6977C92.6111 97.5085 92.5757 97.341 92.5403 97.2041C92.5226 97.1361 92.5017 97.063 92.4768 96.9924C92.4577 96.9381 92.4135 96.8175 92.3321 96.6953L91.5 97.25L90.6679 97.8047C90.6325 97.7515 90.6124 97.7087 90.6046 97.6915C90.5956 97.6714 90.5911 97.6586 90.5905 97.6571C90.5897 97.6548 90.5946 97.6686 90.6043 97.706C90.6235 97.7801 90.6493 97.8978 90.6814 98.068C90.745 98.4056 90.8233 98.8964 90.9163 99.5477C91.102 100.847 91.3404 102.743 91.6317 105.241L92.625 105.125ZM91.5 97.25L92.408 96.8309C92.2613 96.5131 92.1463 95.848 92.1869 94.6913C92.2262 93.5711 92.4049 92.1131 92.7339 90.3039L91.75 90.125L90.7661 89.9461C90.4284 91.8035 90.2321 93.3664 90.1881 94.6212C90.1454 95.8395 90.2387 96.9035 90.592 97.6691L91.5 97.25ZM91.75 90.125L92.7339 90.3039C93.0678 88.4674 93.3194 87.0104 93.4879 85.9362C93.6507 84.8983 93.75 84.1362 93.75 83.75H92.75H91.75C91.75 83.9472 91.6826 84.5392 91.5121 85.6263C91.3472 86.6771 91.0989 88.1159 90.7661 89.9461L91.75 90.125ZM92.75 83.75L93.7262 83.5331C93.6527 83.2023 93.625 82.9559 93.625 82.7812C93.625 82.6004 93.6548 82.5515 93.6444 82.5722L92.75 82.125L91.8556 81.6778C91.5222 82.3445 91.6013 83.1906 91.7738 83.9669L92.75 83.75ZM92.75 82.125L93.55 82.725C93.7603 82.4446 94.425 81.6977 95.6061 80.4323L94.875 79.75L94.1439 79.0677C92.9917 80.3023 92.2397 81.1387 91.95 81.525L92.75 82.125ZM94.875 79.75L95.6218 80.4151C100.409 75.0398 104.087 69.9317 106.635 65.0907L105.75 64.625L104.865 64.1593C102.413 68.8183 98.8408 73.7936 94.1282 79.0849L94.875 79.75ZM105.75 64.625L106.634 65.0929C107.023 64.3582 107.321 63.7004 107.511 63.1287C107.694 62.5803 107.815 62.0065 107.74 61.4836L106.75 61.625L105.76 61.7664C105.769 61.8268 105.764 62.0447 105.614 62.4963C105.471 62.9246 105.227 63.4752 104.866 64.1571L105.75 64.625ZM106.75 61.625H107.75C107.75 60.4676 106.9 59.7067 105.947 59.2306L105.5 60.125L105.053 61.0194C105.395 61.1907 105.579 61.344 105.669 61.4527C105.746 61.5451 105.75 61.5946 105.75 61.625H106.75ZM60.75 100.125L61.5093 100.776C61.8834 100.339 62.1695 100.25 62.375 100.25V99.25V98.25C61.4139 98.25 60.6166 98.744 59.9907 99.4742L60.75 100.125ZM62.375 99.25V100.25C62.612 100.25 62.7634 100.323 62.9179 100.555L63.75 100L64.5821 99.4453C64.07 98.6772 63.3046 98.25 62.375 98.25V99.25ZM63.75 100L62.8556 100.447C62.8556 100.447 62.8596 100.455 62.8681 100.475C62.8762 100.494 62.8867 100.519 62.8996 100.551C62.9257 100.616 62.9582 100.702 62.9977 100.81C63.0767 101.028 63.1777 101.32 63.3013 101.691L64.25 101.375L65.1987 101.059C64.958 100.337 64.7671 99.798 64.6444 99.5528L63.75 100ZM64.25 101.375L63.3362 101.781C63.6627 102.516 63.9466 103.206 64.1887 103.851L65.125 103.5L66.0613 103.149C65.8034 102.461 65.504 101.734 65.1638 100.969L64.25 101.375ZM65.125 103.5L64.1887 103.851C64.425 104.481 64.7082 105.369 65.0385 106.525L66 106.25L66.9615 105.975C66.6252 104.798 66.325 103.852 66.0613 103.149L65.125 103.5ZM66 106.25L65.0442 106.544C65.373 107.613 65.6149 108.502 65.7738 109.217L66.75 109L67.7262 108.783C67.5517 107.998 67.2936 107.054 66.9558 105.956L66 106.25ZM66.75 109L65.7738 109.217C65.9342 109.939 66.097 110.832 66.2616 111.902L67.25 111.75L68.2384 111.598C68.0696 110.501 67.8992 109.561 67.7262 108.783L66.75 109ZM67.25 111.75L66.2616 111.902C66.4213 112.94 66.3954 113.601 66.2885 113.975L67.25 114.25L68.2115 114.525C68.438 113.732 68.4121 112.727 68.2384 111.598L67.25 111.75ZM67.25 114.25L66.2799 114.007C66.0549 114.907 65.744 115.467 65.4179 115.793L66.125 116.5L66.8321 117.207C67.506 116.533 67.9451 115.593 68.2201 114.493L67.25 114.25ZM66.125 116.5L65.4179 115.793C65.0904 116.12 64.8492 116.165 64.6414 116.135L64.5 117.125L64.3586 118.115C65.3175 118.252 66.1596 117.88 66.8321 117.207L66.125 116.5ZM64.5 117.125L64.7941 116.169C64.6233 116.117 64.3623 115.946 64.097 115.365C63.8294 114.78 63.6154 113.894 63.4954 112.654L62.5 112.75L61.5046 112.846C61.6346 114.189 61.8789 115.324 62.278 116.197C62.6793 117.075 63.2933 117.8 64.2059 118.081L64.5 117.125ZM62.5 112.75L63.4961 112.661C63.1634 108.919 62.6138 106.176 61.7466 104.635L60.875 105.125L60.0034 105.615C60.6362 106.74 61.1699 109.081 61.5039 112.839L62.5 112.75ZM60.875 105.125L61.7492 104.639C61.1638 103.586 60.9211 102.77 60.9059 102.163C60.8919 101.6 61.0683 101.194 61.4305 100.858L60.75 100.125L60.0695 99.3922C59.2651 100.139 58.8789 101.108 58.9066 102.212C58.933 103.272 59.3362 104.414 60.0008 105.611L60.875 105.125ZM52.5 101.375L51.97 102.223C51.8594 102.154 51.9052 102.119 52.0049 102.377C52.0933 102.605 52.1837 102.958 52.2616 103.465C52.4168 104.473 52.5 105.935 52.5 107.875H53.5H54.5C54.5 105.899 54.4165 104.319 54.2384 103.16C54.1496 102.584 54.0317 102.072 53.8701 101.655C53.7198 101.266 53.474 100.804 53.03 100.527L52.5 101.375ZM53.5 107.875L52.5002 107.896C52.542 109.861 52.605 111.413 52.6903 112.544C52.7329 113.108 52.7821 113.582 52.8398 113.957C52.8913 114.292 52.9653 114.667 53.1056 114.947L54 114.5L54.8944 114.053C54.9097 114.083 54.8691 113.995 54.8165 113.653C54.77 113.35 54.7254 112.933 54.6847 112.393C54.6033 111.316 54.5413 109.805 54.4998 107.854L53.5 107.875ZM54 114.5L53.0422 114.787C53.4258 116.066 53.1453 117.246 52.0218 118.44L52.75 119.125L53.4782 119.81C55.0214 118.171 55.5742 116.267 54.9578 114.213L54 114.5ZM52.75 119.125L52.0429 118.418C51.6055 118.855 51.3712 118.905 51.3251 118.907C51.3187 118.908 51.3122 118.91 51.2851 118.894C51.2478 118.872 51.1677 118.812 51.0587 118.662L50.25 119.25L49.4413 119.838C49.8945 120.461 50.5564 120.948 51.4249 120.905C52.2122 120.866 52.8945 120.395 53.4571 119.832L52.75 119.125ZM50.25 119.25L51.0182 118.61C51.0218 118.614 50.9767 118.557 50.9132 118.375C50.853 118.201 50.7915 117.96 50.7348 117.639C50.6212 116.995 50.5403 116.109 50.4994 114.964L49.5 115L48.5006 115.036C48.5431 116.224 48.6288 117.213 48.7652 117.986C48.8921 118.705 49.0903 119.42 49.4818 119.89L50.25 119.25ZM49.5 115L50.4994 114.966C50.4573 113.745 50.3937 112.728 50.3067 111.924C50.2224 111.144 50.1087 110.484 49.9363 110.024L49 110.375L48.0637 110.726C48.1413 110.933 48.236 111.377 48.3183 112.139C48.398 112.876 48.4594 113.839 48.5006 115.034L49.5 115ZM49 110.375L49.9536 110.074C49.4963 108.626 49.3408 107.094 49.4955 105.47L48.5 105.375L47.5045 105.28C47.3259 107.156 47.5037 108.958 48.0464 110.676L49 110.375ZM48.5 105.375L49.4908 105.51C49.7321 103.741 50.1575 102.623 50.6559 102L49.875 101.375L49.0941 100.75C48.2591 101.794 47.7679 103.342 47.5092 105.24L48.5 105.375ZM49.875 101.375L50.5821 102.082C50.8782 101.786 51.0656 101.75 51.1562 101.75C51.2582 101.75 51.4768 101.796 51.8273 102.115L52.5 101.375L53.1727 100.635C52.6065 100.12 51.9293 99.75 51.1562 99.75C50.3719 99.75 49.7051 100.131 49.1679 100.668L49.875 101.375ZM40 122.25L39.6838 121.301C39.6584 121.31 39.6872 121.296 39.7395 121.311C39.7861 121.324 39.7812 121.34 39.7311 121.286C39.6059 121.152 39.4087 120.81 39.2135 120.107L38.25 120.375L37.2865 120.643C37.508 121.44 37.8107 122.16 38.2689 122.651C38.5105 122.91 38.8181 123.129 39.198 123.236C39.5837 123.345 39.9666 123.315 40.3162 123.199L40 122.25ZM38.25 120.375L39.2285 120.169C38.9027 118.621 38.6153 116.818 38.3679 114.756L37.375 114.875L36.3821 114.994C36.6347 117.099 36.9306 118.962 37.2715 120.581L38.25 120.375ZM37.375 114.875L38.3679 114.756C38.2415 113.703 38.1132 112.833 37.9818 112.154C37.8565 111.506 37.7117 110.937 37.5194 110.553L36.625 111L35.7306 111.447C35.7883 111.563 35.8935 111.89 36.0182 112.534C36.1368 113.147 36.2585 113.964 36.3821 114.994L37.375 114.875ZM36.625 111L37.5921 110.746C37.1675 109.132 37 108.221 37 107.875H36H35C35 108.529 35.2491 109.701 35.6579 111.254L36.625 111ZM36 107.875L36.9829 108.059C37.1964 106.92 37.733 105.827 38.6343 104.776L37.875 104.125L37.1157 103.474C36.017 104.756 35.3036 106.163 35.0171 107.691L36 107.875ZM37.875 104.125L38.6078 104.805C39.0446 104.335 39.3643 104.226 39.5683 104.218C39.7723 104.211 40.0992 104.296 40.5695 104.733L41.25 104L41.9305 103.267C41.2342 102.621 40.4152 102.185 39.4942 102.219C38.5732 102.254 37.7888 102.748 37.1422 103.445L37.875 104.125ZM41.25 104L40.4907 104.651C40.8764 105.101 40.8108 105.28 40.8013 105.309L41.75 105.625L42.6987 105.941C43.0225 104.97 42.6236 104.066 42.0093 103.349L41.25 104ZM41.75 105.625L40.8925 105.111C40.6448 105.523 40.5481 106.059 40.5038 106.57C40.4564 107.115 40.4585 107.781 40.5015 108.555L41.5 108.5L42.4985 108.445C42.4581 107.719 42.4603 107.156 42.4962 106.743C42.5141 106.537 42.5392 106.384 42.5656 106.275C42.5933 106.16 42.6148 106.127 42.6075 106.139L41.75 105.625ZM41.5 108.5L40.5015 108.555C40.5848 110.054 40.625 111.113 40.625 111.75H41.625H42.625C42.625 111.053 42.5819 109.946 42.4985 108.445L41.5 108.5ZM41.625 111.75L40.6327 111.874C40.7151 112.533 40.8395 113.611 41.0061 115.11L42 115L42.9939 114.89C42.8272 113.389 42.7015 112.3 42.6173 111.626L41.625 111.75ZM42 115L41.0136 115.164C41.2628 116.66 41.4323 117.635 41.5194 118.071L42.5 117.875L43.4806 117.679C43.4011 117.281 43.2372 116.34 42.9864 114.836L42 115ZM42.5 117.875L41.5442 118.169C41.8493 119.161 41.7587 119.657 41.6318 119.879L42.5 120.375L43.3682 120.871C43.908 119.927 43.8174 118.756 43.4558 117.581L42.5 117.875ZM42.5 120.375L41.5809 119.981C41.3666 120.481 41.1635 120.721 41.025 120.825L41.625 121.625L42.225 122.425C42.7532 122.029 43.1334 121.436 43.4191 120.769L42.5 120.375ZM41.625 121.625L41.1778 120.731C40.9118 120.864 40.4271 121.054 39.6838 121.301L40 122.25L40.3162 123.199C41.0729 122.946 41.6715 122.72 42.0722 122.519L41.625 121.625Z" fill="black" mask="url(#path-2-outside-1_249_36)"/>
</svg>
